<svg width="2326" height="1466" viewBox="0 0 2326 1466" fill="none" xmlns="http://www.w3.org/2000/svg">
<g filter="url(#filter0_f_2006_4480)">
<path d="M2015.68 811.401C1985.16 632.368 1839.87 697.642 1763.99 804.355C1745.79 816.06 1728.67 848.231 1708.32 852.466C1671.24 860.182 1629.64 841.315 1594.55 834.787C1558.31 828.044 1520.23 822.193 1504.31 763.956C1487.51 702.504 1407.32 738.424 1375.17 752.059C1371.82 753.481 1312.76 782.895 1314.06 763.606C1314.96 750.177 1321.15 735.094 1314.41 725.835C1305.2 713.172 1276.07 712.482 1263.53 720.551C1225.5 745.012 1197.43 817.485 1159.73 850.414C1133.16 873.615 1105.39 888.196 1078.77 911.005C1050.25 935.445 1021.95 962.126 993.792 988.38C973.082 1007.69 949.384 1036.77 926.824 1041.87C900.334 1047.84 872.875 1019.17 883.488 969.102C887.671 949.369 917.127 933.705 926.605 929.064C952.042 916.61 985.123 911.133 1009.1 885.465C1033.07 859.806 1053.08 803.937 1064.12 761.584C1077.16 711.579 1100.14 658.734 1125.64 622.791C1150.84 587.274 1189.76 570.873 1217.53 544.759C1257.84 506.847 1313.98 459.66 1331.35 379.113C1352.84 279.453 1283.19 293.045 1244.48 317.943C1196.42 348.858 1164.34 401.756 1123.85 459.891C1095.97 499.924 1076.77 526.468 1056.7 576.276C1049.12 595.107 1039.4 557.905 1037.48 552.673C1029.8 531.689 1015.66 515.223 1000.7 512.293C953.328 503.018 883.004 535.337 850.851 618.772C833.254 664.436 817.635 709.858 796.155 751.438C775.749 790.936 745.137 818.177 718.842 840.287C671.624 879.989 607.846 931.139 559.097 928.368C534.466 926.968 510.305 920.889 486.076 916.814C474.209 914.818 476.947 904.534 480.068 885.976C487.998 838.826 504.007 796.142 509.924 747.677C518.176 680.087 496.287 677.39 463.173 684.524C433.374 690.944 396.256 690.865 369.508 729.155C325.442 792.236 305.382 884.614 301.094 971.914C295.27 1090.47 338.506 1156.73 402.026 1164.58C460.835 1171.85 527.322 1135.79 587.93 1119.46C657.564 1100.7 726.803 1087.08 796.376 1068.67C911.373 1038.24 1024.51 1065.17 1140.6 1002.16C1260.82 936.911 1377.98 906.004 1493.82 922.608C1538.7 929.04 1583.26 937.65 1627.96 945.168C1678.94 953.741 1721.33 961.7 1762.7 1004.57C1806.45 1049.9 1864.62 1108.9 1923.45 1092.35C1950.22 1084.82 1986.73 1057.34 2006.27 1017.16C2035.46 957.107 2025.18 867.142 2015.68 811.401Z" fill="url(#paint0_radial_2006_4480)"/>
</g>
<defs>
<filter id="filter0_f_2006_4480" x="0.568359" y="0.0136719" width="2324.92" height="1465.53" filterUnits="userSpaceOnUse" color-interpolation-filters="sRGB">
<feFlood flood-opacity="0" result="BackgroundImageFix"/>
<feBlend mode="normal" in="SourceGraphic" in2="BackgroundImageFix" result="shape"/>
<feGaussianBlur stdDeviation="150" result="effect1_foregroundBlur_2006_4480"/>
</filter>
<radialGradient id="paint0_radial_2006_4480" cx="0" cy="0" r="1" gradientUnits="userSpaceOnUse" gradientTransform="translate(1992.38 714.165) rotate(169.29) scale(2045 1764.41)">
<stop stop-color="#272260"/>
<stop offset="0.692708" stop-color="#283D6F"/>
<stop offset="0.732292" stop-color="#275670"/>
<stop offset="0.982292" stop-color="#283A6F"/>
</radialGradient>
</defs>
</svg>
