<svg width="86" height="86" viewBox="0 0 86 86" fill="none" xmlns="http://www.w3.org/2000/svg">
<path d="M0.144531 64.8216C0.144531 70.306 1.52578 76.3531 5.70085 80.2825C9.87309 84.4548 15.4166 85.8389 21.1618 85.8389H64.4042C72.1835 85.8389 79.299 82.8054 83.1668 75.7732C84.9632 72.5067 85.4214 68.4933 85.4214 64.8216V21.6598C85.4214 16.1097 84.0878 10.1731 79.8651 6.1989C75.6929 2.02666 70.1504 0.642578 64.4042 0.642578H21.161C15.5139 0.642578 9.78748 2.03166 5.70069 6.11829C1.48664 10.3325 0.383373 15.8464 0.144531 21.5792V64.8216Z" fill="#FF5034"/>
<path d="M67.624 53.3058L67.8655 52.3395C71.4087 38.2475 62.7924 21.4981 48.1367 12.7207C54.5788 21.4174 57.3973 31.9663 54.9009 41.1464C54.6594 41.9517 54.4177 42.7568 54.0956 43.5621C53.7735 43.3206 53.3709 43.0789 52.8071 42.8374C52.8071 42.8374 38.2319 33.8186 22.4489 17.9549C22.0463 17.5523 30.9041 30.5975 40.8894 41.1464C36.1383 38.489 23.0127 28.9065 14.6379 21.337C15.6847 23.028 16.8926 24.7191 18.1811 26.2491C25.1063 35.1069 34.2056 45.9779 45.0768 54.3527C37.4268 59.0232 26.6363 59.4258 15.9264 54.3527C13.269 53.1448 10.7728 51.6148 8.4375 49.9238C12.947 57.1711 19.9527 63.4521 28.4884 67.1563C38.6347 71.5048 48.8614 71.1827 56.3503 67.1563C56.6724 66.9953 56.9945 66.7538 57.3167 66.5927C60.9403 64.7406 68.0266 62.8885 71.8918 70.2969C73.0193 71.9878 75.0324 62.3247 67.624 53.3058Z" fill="white"/>
</svg>
