<svg width="80" height="86" viewBox="0 0 80 86" fill="none" xmlns="http://www.w3.org/2000/svg">
<mask id="mask0_245_12" style="mask-type:luminance" maskUnits="userSpaceOnUse" x="0" y="0" width="80" height="86">
<path d="M79.6343 39.946C79.6343 18.1431 61.9561 0.464844 40.1531 0.464844C18.3501 0.464844 0.671875 18.1431 0.671875 39.946C0.671875 51.9359 6.02262 62.6685 14.4591 69.905L9.72138 78.1077V84.6221C9.72138 85.1936 10.1889 85.6611 10.7604 85.6611C10.9526 85.6611 11.1292 85.6091 11.285 85.5209L16.9215 82.2689L21.3216 74.6531C26.9165 77.6973 33.3322 79.4272 40.1531 79.4272C46.974 79.4272 53.3897 77.6973 58.9898 74.6531L63.3898 82.2689L69.0263 85.5209C69.1822 85.6092 69.3588 85.6611 69.551 85.6611C70.1224 85.6611 70.59 85.1936 70.59 84.6221V78.1077L65.8522 69.905C74.2835 62.6685 79.6343 51.9359 79.6343 39.946V39.946Z" fill="white"/>
</mask>
<g mask="url(#mask0_245_12)">
<path d="M40.1531 79.4273C61.9579 79.4273 79.6343 61.7509 79.6343 39.946C79.6343 18.1412 61.9579 0.464844 40.1531 0.464844C18.3482 0.464844 0.671875 18.1412 0.671875 39.946C0.671875 61.7509 18.3482 79.4273 40.1531 79.4273Z" fill="#45EF8A"/>
</g>
<mask id="mask1_245_12" style="mask-type:luminance" maskUnits="userSpaceOnUse" x="0" y="0" width="80" height="86">
<path d="M79.6343 39.946C79.6343 18.1431 61.9561 0.464844 40.1531 0.464844C18.3501 0.464844 0.671875 18.1431 0.671875 39.946C0.671875 51.9359 6.02262 62.6685 14.4591 69.905L9.72138 78.1077V84.6221C9.72138 85.1936 10.1889 85.6611 10.7604 85.6611C10.9526 85.6611 11.1292 85.6091 11.285 85.5209L16.9215 82.2689L21.3216 74.6531C26.9165 77.6973 33.3322 79.4272 40.1531 79.4272C46.974 79.4272 53.3897 77.6973 58.9898 74.6531L63.3898 82.2689L69.0263 85.5209C69.1822 85.6092 69.3588 85.6611 69.551 85.6611C70.1224 85.6611 70.59 85.1936 70.59 84.6221V78.1077L65.8522 69.905C74.2835 62.6685 79.6343 51.9359 79.6343 39.946V39.946Z" fill="white"/>
</mask>
<g mask="url(#mask1_245_12)">
<path d="M40.1531 78.908C61.7846 78.908 79.3434 61.5103 79.6187 39.9463H79.6343C79.6343 61.7493 61.9561 79.4275 40.1531 79.4275C18.3501 79.4275 0.671875 61.7493 0.671875 39.9463H0.68746C0.962789 61.5103 18.5215 78.908 40.1531 78.908Z" fill="#263238" fill-opacity="0.2"/>
</g>
<mask id="mask2_245_12" style="mask-type:luminance" maskUnits="userSpaceOnUse" x="0" y="0" width="80" height="86">
<path d="M79.6343 39.946C79.6343 18.1431 61.9561 0.464844 40.1531 0.464844C18.3501 0.464844 0.671875 18.1431 0.671875 39.946C0.671875 51.9359 6.02262 62.6685 14.4591 69.905L9.72138 78.1077V84.6221C9.72138 85.1936 10.1889 85.6611 10.7604 85.6611C10.9526 85.6611 11.1292 85.6091 11.285 85.5209L16.9215 82.2689L21.3216 74.6531C26.9165 77.6973 33.3322 79.4272 40.1531 79.4272C46.974 79.4272 53.3897 77.6973 58.9898 74.6531L63.3898 82.2689L69.0263 85.5209C69.1822 85.6092 69.3588 85.6611 69.551 85.6611C70.1224 85.6611 70.59 85.1936 70.59 84.6221V78.1077L65.8522 69.905C74.2835 62.6685 79.6343 51.9359 79.6343 39.946V39.946Z" fill="white"/>
</mask>
<g mask="url(#mask2_245_12)">
<path d="M40.1531 0.464844C18.3501 0.464844 0.671875 18.1431 0.671875 39.946H79.6343C79.6343 18.1431 61.9561 0.464844 40.1531 0.464844Z" fill="#3DDC84"/>
</g>
<mask id="mask3_245_12" style="mask-type:luminance" maskUnits="userSpaceOnUse" x="0" y="0" width="80" height="86">
<path d="M79.6343 39.946C79.6343 18.1431 61.9561 0.464844 40.1531 0.464844C18.3501 0.464844 0.671875 18.1431 0.671875 39.946C0.671875 51.9359 6.02262 62.6685 14.4591 69.905L9.72138 78.1077V84.6221C9.72138 85.1936 10.1889 85.6611 10.7604 85.6611C10.9526 85.6611 11.1292 85.6091 11.285 85.5209L16.9215 82.2689L21.3216 74.6531C26.9165 77.6973 33.3322 79.4272 40.1531 79.4272C46.974 79.4272 53.3897 77.6973 58.9898 74.6531L63.3898 82.2689L69.0263 85.5209C69.1822 85.6092 69.3588 85.6611 69.551 85.6611C70.1224 85.6611 70.59 85.1936 70.59 84.6221V78.1077L65.8522 69.905C74.2835 62.6685 79.6343 51.9359 79.6343 39.946V39.946Z" fill="white"/>
</mask>
<g mask="url(#mask3_245_12)">
<path d="M40.1539 38.9074C43.0229 38.9074 45.3488 36.5815 45.3488 33.7125C45.3488 30.8434 43.0229 28.5176 40.1539 28.5176C37.2848 28.5176 34.959 30.8434 34.959 33.7125C34.959 36.5815 37.2848 38.9074 40.1539 38.9074Z" fill="#3DDC84"/>
</g>
<mask id="mask4_245_12" style="mask-type:luminance" maskUnits="userSpaceOnUse" x="0" y="0" width="80" height="86">
<path d="M79.6343 39.946C79.6343 18.1431 61.9561 0.464844 40.1531 0.464844C18.3501 0.464844 0.671875 18.1431 0.671875 39.946C0.671875 51.9359 6.02262 62.6685 14.4591 69.905L9.72138 78.1077V84.6221C9.72138 85.1936 10.1889 85.6611 10.7604 85.6611C10.9526 85.6611 11.1292 85.6091 11.285 85.5209L16.9215 82.2689L21.3216 74.6531C26.9165 77.6973 33.3322 79.4272 40.1531 79.4272C46.974 79.4272 53.3897 77.6973 58.9898 74.6531L63.3898 82.2689L69.0263 85.5209C69.1822 85.6092 69.3588 85.6611 69.551 85.6611C70.1224 85.6611 70.59 85.1936 70.59 84.6221V78.1077L65.8522 69.905C74.2835 62.6685 79.6343 51.9359 79.6343 39.946V39.946Z" fill="white"/>
</mask>
<g mask="url(#mask4_245_12)">
<path d="M79.6343 39.9453H0.671875V39.4258H79.6343V39.9453Z" fill="#263238" fill-opacity="0.05"/>
</g>
<mask id="mask5_245_12" style="mask-type:luminance" maskUnits="userSpaceOnUse" x="0" y="0" width="80" height="86">
<path d="M79.6343 39.946C79.6343 18.1431 61.9561 0.464844 40.1531 0.464844C18.3501 0.464844 0.671875 18.1431 0.671875 39.946C0.671875 51.9359 6.02262 62.6685 14.4591 69.905L9.72138 78.1077V84.6221C9.72138 85.1936 10.1889 85.6611 10.7604 85.6611C10.9526 85.6611 11.1292 85.6091 11.285 85.5209L16.9215 82.2689L21.3216 74.6531C26.9165 77.6973 33.3322 79.4272 40.1531 79.4272C46.974 79.4272 53.3897 77.6973 58.9898 74.6531L63.3898 82.2689L69.0263 85.5209C69.1822 85.6092 69.3588 85.6611 69.551 85.6611C70.1224 85.6611 70.59 85.1936 70.59 84.6221V78.1077L65.8522 69.905C74.2835 62.6685 79.6343 51.9359 79.6343 39.946V39.946Z" fill="white"/>
</mask>
<g mask="url(#mask5_245_12)">
<path d="M79.6343 40.4658H0.671875V39.9463H79.6343V40.4658Z" fill="white" fill-opacity="0.05"/>
</g>
<mask id="mask6_245_12" style="mask-type:luminance" maskUnits="userSpaceOnUse" x="0" y="0" width="80" height="86">
<path d="M79.6343 39.946C79.6343 18.1431 61.9561 0.464844 40.1531 0.464844C18.3501 0.464844 0.671875 18.1431 0.671875 39.946C0.671875 51.9359 6.02262 62.6685 14.4591 69.905L9.72138 78.1077V84.6221C9.72138 85.1936 10.1889 85.6611 10.7604 85.6611C10.9526 85.6611 11.1292 85.6091 11.285 85.5209L16.9215 82.2689L21.3216 74.6531C26.9165 77.6973 33.3322 79.4272 40.1531 79.4272C46.974 79.4272 53.3897 77.6973 58.9898 74.6531L63.3898 82.2689L69.0263 85.5209C69.1822 85.6092 69.3588 85.6611 69.551 85.6611C70.1224 85.6611 70.59 85.1936 70.59 84.6221V78.1077L65.8522 69.905C74.2835 62.6685 79.6343 51.9359 79.6343 39.946V39.946Z" fill="white"/>
</mask>
<g mask="url(#mask6_245_12)">
<path d="M31.7538 39.9453L10.7612 85.6603H79.6351V50.3351L44.3099 15.0098L35.998 21.2436L31.7538 39.9453Z" fill="url(#paint0_linear_245_12)"/>
</g>
<mask id="mask7_245_12" style="mask-type:luminance" maskUnits="userSpaceOnUse" x="0" y="0" width="80" height="86">
<path d="M79.6343 39.946C79.6343 18.1431 61.9561 0.464844 40.1531 0.464844C18.3501 0.464844 0.671875 18.1431 0.671875 39.946C0.671875 51.9359 6.02262 62.6685 14.4591 69.905L9.72138 78.1077V84.6221C9.72138 85.1936 10.1889 85.6611 10.7604 85.6611C10.9526 85.6611 11.1292 85.6091 11.285 85.5209L16.9215 82.2689L21.3216 74.6531C26.9165 77.6973 33.3322 79.4272 40.1531 79.4272C46.974 79.4272 53.3897 77.6973 58.9898 74.6531L63.3898 82.2689L69.0263 85.5209C69.1822 85.6092 69.3588 85.6611 69.551 85.6611C70.1224 85.6611 70.59 85.1936 70.59 84.6221V78.1077L65.8522 69.905C74.2835 62.6685 79.6343 51.9359 79.6343 39.946V39.946Z" fill="white"/>
</mask>
<g mask="url(#mask7_245_12)">
<path d="M40.1531 0.984333C61.7846 0.984333 79.3434 18.382 79.6187 39.946H79.6343C79.6343 18.1431 61.9561 0.464844 40.1531 0.464844C18.3501 0.464844 0.671875 18.1431 0.671875 39.946H0.68746C0.962789 18.382 18.5215 0.984333 40.1531 0.984333Z" fill="white" fill-opacity="0.2"/>
</g>
<mask id="mask8_245_12" style="mask-type:luminance" maskUnits="userSpaceOnUse" x="0" y="0" width="80" height="86">
<path d="M79.6343 39.946C79.6343 18.1431 61.9561 0.464844 40.1531 0.464844C18.3501 0.464844 0.671875 18.1431 0.671875 39.946C0.671875 51.9359 6.02262 62.6685 14.4591 69.905L9.72138 78.1077V84.6221C9.72138 85.1936 10.1889 85.6611 10.7604 85.6611C10.9526 85.6611 11.1292 85.6091 11.285 85.5209L16.9215 82.2689L21.3216 74.6531C26.9165 77.6973 33.3322 79.4272 40.1531 79.4272C46.974 79.4272 53.3897 77.6973 58.9898 74.6531L63.3898 82.2689L69.0263 85.5209C69.1822 85.6092 69.3588 85.6611 69.551 85.6611C70.1224 85.6611 70.59 85.1936 70.59 84.6221V78.1077L65.8522 69.905C74.2835 62.6685 79.6343 51.9359 79.6343 39.946V39.946Z" fill="white"/>
</mask>
<g mask="url(#mask8_245_12)">
<path d="M48.5523 39.9463H38.9521L63.3889 82.2691L69.0254 85.5211C69.1812 85.6094 69.3579 85.6614 69.5501 85.6614C70.1215 85.6614 70.5891 85.1938 70.5891 84.6224V78.108L48.5523 39.9463Z" fill="#D7EFFE"/>
<path opacity="0.3" d="M48.5523 39.9463H38.9521L63.3889 82.2691L69.0254 85.5211C69.1812 85.6094 69.3579 85.6614 69.5501 85.6614C70.1215 85.6614 70.5891 85.1938 70.5891 84.6224V78.108L48.5523 39.9463Z" fill="#BDBDBD"/>
<path d="M70.5833 78.108L48.5518 39.9463H48.2505L70.5833 78.6275V78.108Z" fill="white" fill-opacity="0.2"/>
<path d="M69.5449 85.1419C69.3527 85.1419 69.1761 85.0899 69.0202 85.0016L63.3837 81.7496L39.2535 39.9463H38.9521L63.3889 82.2691L69.0254 85.5211C69.1812 85.6094 69.3579 85.6614 69.5501 85.6614C70.1215 85.6614 70.5891 85.1938 70.5891 84.6224V84.1029C70.5838 84.6743 70.1163 85.1419 69.5449 85.1419Z" fill="#212121" fill-opacity="0.1"/>
</g>
<mask id="mask9_245_12" style="mask-type:luminance" maskUnits="userSpaceOnUse" x="0" y="0" width="80" height="86">
<path d="M79.6343 39.946C79.6343 18.1431 61.9561 0.464844 40.1531 0.464844C18.3501 0.464844 0.671875 18.1431 0.671875 39.946C0.671875 51.9359 6.02262 62.6685 14.4591 69.905L9.72138 78.1077V84.6221C9.72138 85.1936 10.1889 85.6611 10.7604 85.6611C10.9526 85.6611 11.1292 85.6091 11.285 85.5209L16.9215 82.2689L21.3216 74.6531C26.9165 77.6973 33.3322 79.4272 40.1531 79.4272C46.974 79.4272 53.3897 77.6973 58.9898 74.6531L63.3898 82.2689L69.0263 85.5209C69.1822 85.6092 69.3588 85.6611 69.551 85.6611C70.1224 85.6611 70.59 85.1936 70.59 84.6221V78.1077L65.8522 69.905C74.2835 62.6685 79.6343 51.9359 79.6343 39.946V39.946Z" fill="white"/>
</mask>
<g mask="url(#mask9_245_12)">
<path d="M60.9352 39.9463C60.9352 51.4218 51.6312 60.7259 40.1556 60.7259C36.7426 60.7259 33.5218 59.8999 30.6802 58.4401L40.1556 42.0242L41.3557 39.9463H31.7555L9.71875 78.108V84.6224C9.71875 85.1938 10.1863 85.6614 10.7577 85.6614C10.9499 85.6614 11.1266 85.6094 11.2824 85.5211L16.9189 82.2691L26.519 65.6454C30.5866 67.8065 35.2257 69.0377 40.1556 69.0377C56.2235 69.0377 69.2471 56.0141 69.2471 39.9463H60.9352Z" fill="#D7EFFE"/>
<path d="M31.7555 39.9463L9.71875 78.108V78.6275L32.0568 39.9463H31.7555ZM40.1556 60.7259C36.7426 60.7259 33.5218 59.8999 30.6802 58.4401V58.9596C33.5218 60.4194 36.7426 61.2454 40.1556 61.2454C51.6312 61.2454 60.9352 51.9413 60.9352 40.4658H69.2315C69.2367 40.2943 69.2471 40.1229 69.2471 39.9463H60.9352C60.9352 51.4218 51.6312 60.7259 40.1556 60.7259Z" fill="white" fill-opacity="0.4"/>
<path d="M41.3557 39.9463H41.0544L30.675 57.9206V58.4401L41.3557 39.9463ZM69.2315 39.9463C68.951 55.7699 56.0468 68.5182 40.1556 68.5182C35.2257 68.5182 30.5866 67.287 26.519 65.1259L16.9189 81.7496L11.2824 85.0016C11.1266 85.0899 10.9499 85.1419 10.7577 85.1419C10.1863 85.1419 9.71875 84.6743 9.71875 84.1029V84.6224C9.71875 85.1938 10.1863 85.6614 10.7577 85.6614C10.9499 85.6614 11.1266 85.6094 11.2824 85.5211L16.9189 82.2691L26.519 65.6454C30.5866 67.8065 35.2257 69.0377 40.1556 69.0377C56.2235 69.0377 69.2471 56.0141 69.2471 39.9463H69.2315Z" fill="#212121" fill-opacity="0.1"/>
</g>
<mask id="mask10_245_12" style="mask-type:luminance" maskUnits="userSpaceOnUse" x="0" y="0" width="80" height="86">
<path d="M79.6343 39.946C79.6343 18.1431 61.9561 0.464844 40.1531 0.464844C18.3501 0.464844 0.671875 18.1431 0.671875 39.946C0.671875 51.9359 6.02262 62.6685 14.4591 69.905L9.72138 78.1077V84.6221C9.72138 85.1936 10.1889 85.6611 10.7604 85.6611C10.9526 85.6611 11.1292 85.6091 11.285 85.5209L16.9215 82.2689L21.3216 74.6531C26.9165 77.6973 33.3322 79.4272 40.1531 79.4272C46.974 79.4272 53.3897 77.6973 58.9898 74.6531L63.3898 82.2689L69.0263 85.5209C69.1822 85.6092 69.3588 85.6611 69.551 85.6611C70.1224 85.6611 70.59 85.1936 70.59 84.6221V78.1077L65.8522 69.905C74.2835 62.6685 79.6343 51.9359 79.6343 39.946V39.946Z" fill="white"/>
</mask>
<g mask="url(#mask10_245_12)">
<path d="M49.507 21.2456H44.3121V15.0117H36.0003V21.2456H30.8054C29.0911 21.2456 27.6885 22.6482 27.6885 24.3625V39.9472L37.9536 50.2019C38.5198 50.763 39.2939 51.1162 40.1562 51.1162C41.0186 51.1162 41.7978 50.7682 42.3589 50.2019L52.624 39.9472V24.3625C52.624 22.6482 51.2214 21.2456 49.507 21.2456ZM40.1562 38.9082C37.2886 38.9082 34.9613 36.5809 34.9613 33.7133C34.9613 30.8458 37.2886 28.5184 40.1562 28.5184C43.0238 28.5184 45.3511 30.8458 45.3511 33.7133C45.3511 36.5809 43.0238 38.9082 40.1562 38.9082Z" fill="#073042"/>
</g>
<mask id="mask11_245_12" style="mask-type:luminance" maskUnits="userSpaceOnUse" x="0" y="0" width="80" height="86">
<path d="M79.6343 39.946C79.6343 18.1431 61.9561 0.464844 40.1531 0.464844C18.3501 0.464844 0.671875 18.1431 0.671875 39.946C0.671875 51.9359 6.02262 62.6685 14.4591 69.905L9.72138 78.1077V84.6221C9.72138 85.1936 10.1889 85.6611 10.7604 85.6611C10.9526 85.6611 11.1292 85.6091 11.285 85.5209L16.9215 82.2689L21.3216 74.6531C26.9165 77.6973 33.3322 79.4272 40.1531 79.4272C46.974 79.4272 53.3897 77.6973 58.9898 74.6531L63.3898 82.2689L69.0263 85.5209C69.1822 85.6092 69.3588 85.6611 69.551 85.6611C70.1224 85.6611 70.59 85.1936 70.59 84.6221V78.1077L65.8522 69.905C74.2835 62.6685 79.6343 51.9359 79.6343 39.946V39.946Z" fill="white"/>
</mask>
<g mask="url(#mask11_245_12)">
<path d="M49.5051 21.2436H44.3102V21.7631H49.5051C51.2194 21.7631 52.622 23.1657 52.622 24.8801V24.3606C52.622 22.6463 51.2194 21.2436 49.5051 21.2436ZM44.3102 15.0098H35.9984V15.5293H44.3102V15.0098ZM35.9984 21.2436H30.8035C29.0891 21.2436 27.6865 22.6463 27.6865 24.3606V24.8801C27.6865 23.1657 29.0891 21.7631 30.8035 21.7631H35.9984V21.2436ZM40.1543 38.9063C37.2867 38.9063 34.9594 36.579 34.9594 33.7114V34.2309C34.9594 37.0985 37.2867 39.4258 40.1543 39.4258C43.0219 39.4258 45.3492 37.0985 45.3492 34.2309V33.7114C45.3492 36.579 43.0219 38.9063 40.1543 38.9063Z" fill="white" fill-opacity="0.1"/>
</g>
<mask id="mask12_245_12" style="mask-type:luminance" maskUnits="userSpaceOnUse" x="0" y="0" width="80" height="86">
<path d="M79.6343 39.946C79.6343 18.1431 61.9561 0.464844 40.1531 0.464844C18.3501 0.464844 0.671875 18.1431 0.671875 39.946C0.671875 51.9359 6.02262 62.6685 14.4591 69.905L9.72138 78.1077V84.6221C9.72138 85.1936 10.1889 85.6611 10.7604 85.6611C10.9526 85.6611 11.1292 85.6091 11.285 85.5209L16.9215 82.2689L21.3216 74.6531C26.9165 77.6973 33.3322 79.4272 40.1531 79.4272C46.974 79.4272 53.3897 77.6973 58.9898 74.6531L63.3898 82.2689L69.0263 85.5209C69.1822 85.6092 69.3588 85.6611 69.551 85.6611C70.1224 85.6611 70.59 85.1936 70.59 84.6221V78.1077L65.8522 69.905C74.2835 62.6685 79.6343 51.9359 79.6343 39.946V39.946Z" fill="white"/>
</mask>
<g mask="url(#mask12_245_12)">
<path d="M40.1543 28.5175C43.0219 28.5175 45.3492 30.8449 45.3492 33.7124V33.1929C45.3492 30.3254 43.0219 27.998 40.1543 27.998C37.2867 27.998 34.9594 30.3254 34.9594 33.1929V33.7124C34.9594 30.8449 37.2867 28.5175 40.1543 28.5175ZM42.3569 49.6815C41.7907 50.2426 41.0166 50.5958 40.1543 50.5958C39.2919 50.5958 38.5127 50.2478 37.9516 49.6815L27.6865 39.4268V39.9463L37.9516 50.201C38.5179 50.7621 39.2919 51.1153 40.1543 51.1153C41.0166 51.1153 41.7959 50.7673 42.3569 50.201L52.622 39.9463V39.4268L42.3569 49.6815Z" fill="#212121" fill-opacity="0.1"/>
</g>
<path d="M79.6357 39.946C79.6357 18.1431 61.9575 0.464844 40.1545 0.464844C18.3516 0.464844 0.67334 18.1431 0.67334 39.946C0.67334 51.9359 6.02408 62.6685 14.4606 69.905L9.72284 78.1077V84.6221C9.72284 85.1936 10.1904 85.6611 10.7618 85.6611C10.954 85.6611 11.1307 85.6092 11.2865 85.5209L16.923 82.2689L21.323 74.6532C26.9179 77.6974 33.3336 79.4273 40.1545 79.4273C46.9754 79.4273 53.3911 77.6974 58.9912 74.6532L63.3913 82.2689L69.0278 85.5209C69.1836 85.6092 69.3602 85.6611 69.5525 85.6611C70.1239 85.6611 70.5914 85.1936 70.5914 84.6221V78.1077L65.8537 69.905C74.285 62.6685 79.6357 51.9359 79.6357 39.946Z" fill="url(#paint1_radial_245_12)"/>
<defs>
<linearGradient id="paint0_linear_245_12" x1="30.9898" y1="51.8535" x2="68.2594" y2="72.7207" gradientUnits="userSpaceOnUse">
<stop stop-color="#263238" stop-opacity="0.2"/>
<stop offset="1" stop-color="#263238" stop-opacity="0.02"/>
</linearGradient>
<radialGradient id="paint1_radial_245_12" cx="0" cy="0" r="1" gradientUnits="userSpaceOnUse" gradientTransform="translate(12.2881 11.9928) scale(93.5725 100.96)">
<stop stop-color="white" stop-opacity="0.1"/>
<stop offset="1" stop-color="white" stop-opacity="0"/>
</radialGradient>
</defs>
</svg>
