<svg width="77" height="86" viewBox="0 0 77 86" fill="none" xmlns="http://www.w3.org/2000/svg">
<path fill-rule="evenodd" clip-rule="evenodd" d="M38.6213 42.0486C38.8791 42.0485 39.1312 42.1249 39.3456 42.2681C39.56 42.4112 39.7271 42.6148 39.8259 42.8529C39.9246 43.0911 39.9505 43.3532 39.9002 43.606C39.85 43.8589 39.7259 44.0912 39.5436 44.2735C39.3614 44.4559 39.1291 44.58 38.8763 44.6304C38.6234 44.6807 38.3613 44.6549 38.1231 44.5563C37.885 44.4576 37.6814 44.2906 37.5381 44.0762C37.3949 43.8619 37.3184 43.6099 37.3184 43.3521C37.3186 43.0065 37.456 42.6751 37.7002 42.4307C37.9445 42.1863 38.2758 42.0488 38.6213 42.0483V42.0486ZM38.6213 48.649C39.669 48.6491 40.6931 48.3385 41.5643 47.7565C42.4354 47.1745 43.1144 46.3472 43.5153 45.3793C43.9163 44.4115 44.0212 43.3464 43.8169 42.3189C43.6126 41.2913 43.1081 40.3475 42.3673 39.6066C41.6265 38.8658 40.6827 38.3613 39.6552 38.1569C38.6276 37.9525 37.5626 38.0573 36.5947 38.4582C35.6268 38.8592 34.7995 39.5381 34.2174 40.4092C33.6353 41.2803 33.3247 42.3044 33.3247 43.3521C33.3263 44.7564 33.8848 46.1027 34.8778 47.0957C35.8707 48.0887 37.217 48.6474 38.6213 48.649ZM16.5383 45.9349C18.9511 47.8485 21.5721 49.7473 24.3508 51.5903C24.5588 54.9206 24.8916 58.1388 25.3429 61.185C22.8553 62.0804 20.3178 62.8304 17.7432 63.4314C9.85593 65.2305 6.08716 64.21 5.18844 62.6543C4.28972 61.0987 5.29194 57.3247 10.7928 51.3938C12.6007 49.4644 14.5191 47.6417 16.5383 45.9347V45.9349ZM10.7928 35.3102C5.29161 29.38 4.29121 25.6054 5.18844 24.0498C5.74887 23.0805 7.42467 22.3182 10.5195 22.3182C12.3885 22.3182 14.7747 22.5961 17.7432 23.2735C20.3177 23.8739 22.8552 24.6234 25.3427 25.5182C24.8914 28.5668 24.5586 31.7843 24.3506 35.1131C21.5718 36.9577 18.951 38.8548 16.5382 40.7707C14.519 39.0632 12.6006 37.24 10.7928 35.3102ZM31.6708 15.2318C34.057 7.50189 36.8255 4.74748 38.6213 4.74748C40.4171 4.74748 43.1856 7.50172 45.5718 15.2316C46.3385 17.7618 46.9581 20.3342 47.4275 22.9359C44.5616 24.0692 41.608 25.3894 38.6213 26.8746C35.6348 25.3894 32.6809 24.0692 29.8153 22.9359C30.2847 20.3342 30.9042 17.7618 31.6708 15.2316V15.2318ZM59.4996 23.2733C67.3869 21.4736 71.1563 22.4948 72.0512 24.0496C72.9539 25.6054 71.9492 29.38 66.4501 35.3102C64.6417 37.2394 62.7233 39.0624 60.7043 40.77C58.2915 38.8548 55.6707 36.9577 52.892 35.1125C52.6832 31.7845 52.3512 28.5662 51.9 25.5176C54.3875 24.6224 56.925 23.8729 59.4996 23.2727V23.2733ZM66.4501 51.3948C71.9492 57.3249 72.9539 61.0988 72.0509 62.6543C71.156 64.21 67.3846 65.2305 59.4992 63.4314C56.9246 62.8307 54.3871 62.0806 51.8996 61.185C52.3509 58.1388 52.6829 54.9206 52.8917 51.5903C55.6706 49.7473 58.2912 47.8493 60.704 45.9349C62.7229 47.6422 64.6414 49.465 66.4497 51.3939L66.4501 51.3948ZM31.36 55.9302C32.3084 56.4779 33.2568 57.0104 34.2054 57.5276C32.5443 58.3031 30.864 59.037 29.1662 59.7285C28.9156 57.9125 28.7115 56.0904 28.554 54.264C29.4762 54.8268 30.4115 55.382 31.36 55.9297V55.9302ZM48.6885 54.2645C48.5311 56.091 48.3267 57.9131 48.0755 59.729C46.3779 59.0374 44.698 58.3035 43.0371 57.5281C43.9861 57.0101 44.9346 56.4777 45.8825 55.9306C46.8304 55.3836 47.7657 54.8283 48.6885 54.2645ZM53.1045 40.0895C53.1312 41.1695 53.1445 42.2571 53.1445 43.3524C53.1445 44.4476 53.1312 45.535 53.1045 46.6146C54.6453 45.5386 56.1207 44.4512 57.5307 43.3524C56.1227 42.2567 54.6473 41.1691 53.1045 40.0895ZM43.0374 29.1775C44.6978 28.4008 46.3778 27.6666 48.0758 26.9759C48.327 28.7918 48.5314 30.614 48.6888 32.4404C47.7664 31.8777 46.831 31.3225 45.8826 30.7748C44.9343 30.2271 43.9858 29.6946 43.0372 29.1774L43.0374 29.1775ZM28.5542 32.4404C28.7116 30.614 28.9158 28.7919 29.1664 26.9759C30.8646 27.6667 32.5449 28.4008 34.2056 29.1775C33.2566 29.6949 32.3081 30.2274 31.3602 30.7749C30.4123 31.3225 29.4769 31.8777 28.5542 32.4404ZM24.138 46.6146C24.1113 45.5345 24.098 44.4471 24.098 43.3524C24.098 42.2577 24.1113 41.1701 24.138 40.0895C22.5971 41.1663 21.1217 42.2538 19.7117 43.3521C21.1191 44.448 22.5946 45.5354 24.138 46.6143V46.6146ZM28.0916 43.3521C28.0916 45.3805 28.1379 47.3851 28.2282 49.3521C29.8868 50.414 31.5961 51.4535 33.3561 52.4706C35.1135 53.4856 36.8686 54.4464 38.6213 55.3531C40.3702 54.448 42.1253 53.4872 43.8867 52.4709C45.6434 51.4575 47.3527 50.418 49.0146 49.3524C49.1048 47.3854 49.1511 45.3808 49.1511 43.3524C49.1511 41.324 49.1048 39.3195 49.0146 37.3517C47.3559 36.2897 45.6466 35.2503 43.8867 34.2332C42.1292 33.2192 40.3741 32.2587 38.6213 31.3519C36.8727 32.2568 35.1176 33.2173 33.3561 34.2332C31.5994 35.2474 29.8901 36.2869 28.2282 37.3517C28.1368 39.3506 28.0913 41.3514 28.0916 43.3524V43.3521ZM45.5718 71.4735C43.1856 79.2025 40.4164 81.9566 38.6213 81.9566C36.8262 81.9566 34.057 79.2024 31.6708 71.4735C30.9044 68.9433 30.2849 66.3709 29.8153 63.7692C32.681 62.6357 35.6348 61.3163 38.6213 59.8304C41.608 61.3163 44.5618 62.6357 47.4275 63.7692C46.9579 66.3709 46.3383 68.9433 45.5718 71.4735ZM7.8658 48.6768C1.67276 55.3531 -0.449161 60.8774 1.73067 64.6511C3.15687 67.1221 6.15372 68.3716 10.5445 68.3716C12.8608 68.3716 15.5664 68.024 18.6315 67.3253C21.1311 66.7428 23.5974 66.0257 26.0196 65.1771C26.497 67.6994 27.1097 70.1941 27.8553 72.6504C30.539 81.3514 34.2635 85.9502 38.6213 85.9502C42.9791 85.9502 46.703 81.3514 49.3873 72.6504C50.1331 70.1942 50.7457 67.6995 51.2226 65.1773C53.6448 66.0257 56.1111 66.7428 58.6107 67.3255C61.6774 68.0244 64.3814 68.3718 66.6977 68.3718C71.0854 68.3718 74.0838 67.1223 75.5123 64.6513C77.6945 60.8774 75.5674 55.3531 69.3767 48.677C67.6226 46.803 65.7682 45.0255 63.8218 43.3522C65.7685 41.6792 67.6228 39.9017 69.3767 38.0275C75.5667 31.3525 77.6945 25.8289 75.5123 22.0543C73.3302 18.2797 67.4881 17.3549 58.6107 19.3801C56.1109 19.9614 53.6446 20.678 51.2226 21.5267C50.7456 19.0048 50.133 16.5104 49.3873 14.0545C46.703 5.35284 42.9793 0.753906 38.6213 0.753906C34.2633 0.753906 30.539 5.35284 27.8553 14.0545C27.1097 16.5106 26.4968 19.0049 26.0193 21.5268C23.5972 20.6781 21.1309 19.9615 18.6311 19.3803C9.75426 17.3535 3.909 18.2789 1.73067 22.053C-0.447663 25.8271 1.67276 31.3519 7.8658 38.0273C9.6193 39.9015 11.4734 41.6791 13.4199 43.3521C11.4736 45.0253 9.61956 46.8028 7.8658 48.6768Z" fill="url(#paint0_linear_245_93)"/>
<defs>
<linearGradient id="paint0_linear_245_93" x1="1.43381" y1="44.1661" x2="75.8027" y2="42.5382" gradientUnits="userSpaceOnUse">
<stop stop-color="#58C8DD"/>
<stop offset="1" stop-color="#53A7DD"/>
</linearGradient>
</defs>
</svg>
