<svg width="115" height="129" viewBox="0 0 115 129" fill="none" xmlns="http://www.w3.org/2000/svg">
<path opacity="0.12" d="M51.8447 128.849C74.2861 128.849 92.4785 126.764 92.4785 124.191C92.4785 121.619 74.2861 119.533 51.8447 119.533C29.4033 119.533 11.2109 121.619 11.2109 124.191C11.2109 126.764 29.4033 128.849 51.8447 128.849Z" fill="black"/>
<path d="M38.8671 48.2932V43.3731C38.8671 40.6308 36.6609 38.3926 33.9132 38.3926H9.64528C6.91764 38.3926 4.69141 40.6106 4.69141 43.3731V56.5807V107.354C4.69141 110.096 6.89758 112.335 9.64528 112.335H93.3396C96.0672 112.335 98.2935 110.117 98.2935 107.354V58.2341C98.2935 55.4918 96.0873 53.2536 93.3396 53.2536H43.8009C41.0933 53.2536 38.8671 51.0355 38.8671 48.2932Z" fill="#393D3D"/>
<path d="M38.1052 72.8733L37.9648 0.746074C37.9648 0.403283 38.2456 0.100821 38.6066 0.100821L95.1249 0C95.4658 0 95.7667 0.282298 95.7667 0.645253L95.9071 72.7725C95.9071 73.1153 95.6263 73.4177 95.2653 73.4177L38.747 73.5185C38.386 73.5185 38.1052 73.2362 38.1052 72.8733Z" fill="#F2F2F2"/>
<path opacity="0.23" d="M88.3644 24.6852L50.5586 24.7568L50.5607 25.9062L88.3666 25.8346L88.3644 24.6852Z" fill="black"/>
<path opacity="0.23" d="M88.3853 29.8416L43.9609 29.9258L43.9627 30.8735L88.3871 30.7894L88.3853 29.8416Z" fill="black"/>
<path opacity="0.23" d="M88.3853 35.4667L43.9609 35.5508L43.9627 36.4985L88.3871 36.4144L88.3853 35.4667Z" fill="black"/>
<path opacity="0.23" d="M88.4049 41.6171L43.9805 41.7012L43.9822 42.6489L88.4066 42.5648L88.4049 41.6171Z" fill="black"/>
<path d="M71.9583 53.449L44 53.502L44.0018 54.4497L71.9601 54.3967L71.9583 53.449Z" fill="#E6E6E7"/>
<path opacity="0.23" d="M71.9388 47.8435L43.9805 47.8965L43.9822 48.8442L71.9405 48.7912L71.9388 47.8435Z" fill="black"/>
<path d="M88.4244 58.3739L44 58.458L44.0018 59.4057L88.4262 59.3216L88.4244 58.3739Z" fill="#E6E6E7"/>
<path d="M88.4439 63.9998L44.0195 64.084L44.0213 65.0317L88.4457 64.9476L88.4439 63.9998Z" fill="#E6E6E7"/>
<path d="M88.4439 70.1502L44.0195 70.2344L44.0213 71.1821L88.4457 71.0979L88.4439 70.1502Z" fill="#E6E6E7"/>
<path d="M89.6573 5.80448L43.6484 5.8916L43.6756 20.4098L89.6845 20.3227L89.6573 5.80448Z" fill="#B37876"/>
<path d="M87.9906 43.4611L74.1719 43.4873L74.1973 57.0376L88.016 57.0114L87.9906 43.4611Z" fill="#9EBAC6"/>
<path d="M34.1556 48.2932V43.3731C34.1556 40.6308 31.9495 38.3926 29.2018 38.3926H4.93381C2.20618 38.3926 0 40.6308 0 43.3731V56.5807V107.354C0 110.096 2.20618 112.314 4.95387 112.314H88.6482C91.3758 112.314 93.6021 110.096 93.6021 107.334V58.2341C93.6021 55.4918 91.3959 53.2536 88.6482 53.2536H39.1095C36.3618 53.2536 34.1556 51.0355 34.1556 48.2932Z" fill="#656768"/>
<path d="M113.502 109.204C112.955 108.798 112.284 108.5 111.574 108.34C111.458 108.314 111.351 108.255 111.267 108.17C111.182 108.086 111.124 107.979 111.098 107.862C110.793 106.505 110.137 105.341 109.173 104.459C108.053 103.432 106.571 102.867 105 102.867C103.619 102.867 102.344 103.3 101.314 104.119C100.616 104.675 100.054 105.383 99.6707 106.189C99.6292 106.278 99.5676 106.355 99.4909 106.415C99.4142 106.475 99.3245 106.517 99.2289 106.536C98.184 106.747 97.2406 107.195 96.5203 107.83C95.5258 108.709 95 109.877 95 111.211C95 112.559 95.566 113.789 96.5934 114.678C97.5746 115.525 98.8957 115.992 100.312 115.992H104.375V110.001L102.942 111.434C102.882 111.494 102.811 111.541 102.732 111.573C102.653 111.604 102.569 111.619 102.485 111.617C102.4 111.615 102.317 111.596 102.24 111.561C102.163 111.526 102.094 111.475 102.037 111.412C101.811 111.164 101.832 110.776 102.07 110.538L104.558 108.05C104.675 107.933 104.834 107.867 105 107.867C105.166 107.867 105.325 107.933 105.442 108.05L107.93 110.537C108.175 110.783 108.189 111.186 107.945 111.432C107.887 111.491 107.818 111.537 107.742 111.569C107.666 111.601 107.585 111.617 107.502 111.617C107.42 111.618 107.339 111.601 107.262 111.57C107.186 111.539 107.117 111.493 107.059 111.434L105.625 110.001V115.992H110.469C111.693 115.992 112.809 115.648 113.611 115.025C114.52 114.318 115 113.306 115 112.102C115 110.932 114.482 109.929 113.502 109.204Z" fill="white"/>
<path d="M104.375 118.509C104.375 118.674 104.441 118.833 104.558 118.951C104.675 119.068 104.834 119.134 105 119.134C105.166 119.134 105.325 119.068 105.442 118.951C105.559 118.833 105.625 118.674 105.625 118.509V115.992H104.375V118.509Z" fill="white"/>
</svg>
