<svg width="701" height="731" viewBox="0 0 701 731" fill="none" xmlns="http://www.w3.org/2000/svg">
<g opacity="0.5">
<path d="M0.59375 730.214L11.5313 718.812L22.4688 707.41L33.4063 696.008L44.3438 684.606L55.2813 673.204L66.2188 661.802L77.1563 650.4L88.0938 638.998L99.0313 627.596L109.969 616.194L120.906 604.792L131.844 593.39L142.781 581.988L153.719 570.586L164.656 559.184L175.594 547.782L186.531 536.381L197.469 524.979L208.406 513.577L219.344 502.175L230.281 490.773L241.219 479.371L252.156 467.969L263.094 456.567L274.031 445.165L284.969 433.763L295.906 422.361L306.844 410.959L317.781 399.557L328.719 388.155L339.656 376.753L350.594 365.351L361.531 353.949L372.469 342.547L383.406 331.145L394.344 319.743L405.281 308.341L416.219 296.939L427.156 285.537L438.094 274.135L449.031 262.733L459.969 251.331L470.906 239.929L481.844 228.528L492.781 217.126L503.719 205.724L514.656 194.322L525.594 182.92L536.531 171.518L547.469 160.116L558.406 148.714L569.344 137.312L580.281 125.91L591.219 114.508L602.156 103.106L613.094 91.704L624.031 80.302L634.969 68.9001L645.906 57.4981L656.844 46.0961L667.781 34.6942L678.719 23.2922L689.656 11.8902L700.594 0.488281V0.513068V0.537855V0.562642V0.587429V0.612216V0.637002V0.661789V0.686576V0.711363V0.73615V0.760937V0.785724V0.810511V0.835298V0.860084V0.884871V0.909658V0.934445V0.959232V0.984019V1.00881V1.03359V1.05838V1.08317V1.10795V1.13274V1.15753V1.18231V1.2071V1.23189V1.25667V1.28146V1.30625V1.33104V1.35582V1.38061V1.4054V1.43018V1.45497V1.47976V1.50454V1.52933V1.55412V1.5789V1.60369V1.62848V1.65326V1.67805V1.70284V1.72762V1.75241V1.7772V1.80199V1.82677V1.85156V1.87635V1.90113V1.92592V1.95071V1.97549V2.00028V2.02507V2.04985V2.07464L700.464 9.18847L700.334 16.3023L700.204 23.4161L700.074 30.53L699.944 37.6438L699.814 44.7576L699.684 51.8715L699.555 58.9853L699.425 66.0991L699.295 73.213L699.165 80.3268L699.035 87.4406L698.905 94.5545L698.775 101.668L698.645 108.782L698.515 115.896L698.385 123.01L698.256 130.124L698.126 137.237L697.996 144.351L697.866 151.465L697.736 158.579L697.606 165.693L697.476 172.807L697.346 179.92L697.216 187.034L697.086 194.148L696.957 201.262L696.827 208.376L696.697 215.49L696.567 222.603L696.437 229.717L696.307 236.831L696.177 243.945L696.047 251.059L695.917 258.173L695.787 265.286L695.658 272.4L695.528 279.514L695.398 286.628L695.268 293.742L695.138 300.856L695.008 307.969L694.878 315.083L694.748 322.197L694.618 329.311L694.488 336.425L694.359 343.539L694.229 350.652L694.099 357.766L693.969 364.88L693.839 371.994L693.709 379.108L693.579 386.222L693.449 393.335L693.319 400.449L693.19 407.563L693.06 414.677L692.93 421.791L692.8 428.905L692.67 436.018L692.54 443.132L692.41 450.246L692.28 457.36L688.721 461.078L685.162 464.796L681.603 468.514L678.043 472.232L674.484 475.95L670.925 479.668L667.366 483.386L663.806 487.104L660.247 490.822L656.688 494.54L653.129 498.258L649.569 501.976L646.01 505.694L642.451 509.412L638.892 513.13L635.332 516.848L631.773 520.566L628.214 524.285L624.655 528.003L621.096 531.721L617.536 535.439L613.977 539.157L610.418 542.875L606.859 546.593L603.299 550.311L599.74 554.029L596.181 557.747L592.622 561.465L589.062 565.183L585.503 568.901L581.944 572.619L578.385 576.337L574.826 580.055L571.266 583.773L567.707 587.491L564.148 591.209L560.589 594.927L557.029 598.645L553.47 602.363L549.911 606.081L546.352 609.799L542.792 613.517L539.233 617.235L535.674 620.953L532.115 624.671L528.555 628.389L524.996 632.107L521.437 635.825L517.878 639.543L514.319 643.262L510.759 646.98L507.2 650.698L503.641 654.416L500.082 658.134L496.522 661.852L492.963 665.57L489.404 669.288L485.845 673.006L482.285 676.724L478.726 680.442L475.167 684.16L471.608 687.878L468.049 691.596L464.489 695.314L457.241 695.859L449.993 696.405L442.744 696.95L435.496 697.495L428.247 698.04L420.999 698.586L413.751 699.131L406.502 699.676L399.254 700.222L392.006 700.767L384.757 701.312L377.509 701.858L370.26 702.403L363.012 702.948L355.764 703.494L348.515 704.039L341.267 704.584L334.019 705.13L326.77 705.675L319.522 706.22L312.274 706.765L305.025 707.311L297.777 707.856L290.528 708.401L283.28 708.947L276.032 709.492L268.783 710.037L261.535 710.583L254.287 711.128L247.038 711.673L239.79 712.219L232.541 712.764L225.293 713.309L218.045 713.855L210.796 714.4L203.548 714.945L196.222 715.218L188.973 715.763L181.725 716.308L174.477 716.854L167.228 717.399L159.98 717.944L152.732 718.49L145.483 719.035L138.235 719.58L130.986 720.126L123.738 720.671L116.49 721.216L109.241 721.762L101.993 722.307L94.7446 722.852L87.4962 723.397L80.2479 723.943L72.9995 724.488L65.7511 725.033L58.5027 725.579L51.2544 726.124L44.006 726.669L36.7576 727.215L29.5093 727.76L22.2609 728.305L15.0125 728.851L7.76418 729.396L0.59375 730.214ZM699.607 2.99176L688.721 14.3441L677.835 25.6965L666.95 37.0489L656.064 48.4013L645.179 59.7537L634.293 71.1061L623.408 82.4585L612.522 93.8109L601.637 105.163L590.751 116.516L579.866 127.868L568.98 139.22L558.094 150.573L547.209 161.925L536.323 173.278L525.438 184.63L514.552 195.982L503.667 207.335L492.781 218.687L481.896 230.04L471.01 241.392L460.125 252.744L449.239 264.097L438.354 275.449L427.468 286.801L416.582 298.154L405.697 309.506L394.811 320.859L383.926 332.211L373.04 343.563L362.155 354.916L351.269 366.268L340.384 377.621L329.498 388.973L318.613 400.325L307.727 411.678L296.842 423.03L285.956 434.383L275.07 445.735L264.185 457.087L253.637 468.093L242.752 479.445L231.866 490.797L220.98 502.15L210.095 513.502L199.209 524.855L188.324 536.207L177.438 547.559L166.553 558.912L155.667 570.264L144.782 581.617L133.896 592.969L123.011 604.321L112.125 615.674L101.24 627.026L90.354 638.379L79.4685 649.731L68.5829 661.083L57.6974 672.436L46.8118 683.788L35.9263 695.14L25.2226 706.295L14.3371 717.647L3.45153 728.975L10.6479 728.429L17.8443 727.884L25.0408 727.339L32.2372 726.793L39.4336 726.248L46.63 725.703L53.8264 725.157L61.0228 724.612L68.2192 724.067L75.4156 723.521L82.612 722.976L89.8084 722.431L97.0048 721.885L104.201 721.34L111.398 720.795L118.594 720.25L125.79 719.704L132.987 719.159L140.183 718.614L147.38 718.068L154.576 717.523L161.773 716.978L168.969 716.432L176.165 715.887L183.362 715.342L190.558 714.796L197.755 714.251L204.951 713.706L212.147 713.16L219.344 712.615L226.54 712.07L233.737 711.525L240.933 710.979L248.129 710.434L255.326 709.889L262.522 709.343L269.719 708.798L276.915 708.253L284.111 707.707L291.308 707.162L298.504 706.617L305.701 706.071L312.897 705.526L320.093 704.981L327.29 704.436L334.486 703.89L341.683 703.345L348.879 702.8L356.076 702.254L363.272 701.709L370.468 701.164L377.665 700.618L384.861 700.073L392.058 699.528L399.254 698.982L406.45 698.437L413.647 697.892L420.843 697.346L428.04 696.801L435.236 696.256L442.432 695.711L449.629 695.165L456.825 694.62L464.022 694.075L467.581 690.357L471.14 686.639L474.699 682.921L478.259 679.202L481.818 675.484L485.377 671.766L488.936 668.048L492.495 664.33L496.055 660.612L499.614 656.894L503.173 653.176L506.732 649.458L510.292 645.74L513.851 642.022L517.41 638.304L520.969 634.586L524.529 630.868L528.088 627.15L531.647 623.432L535.206 619.714L538.766 615.996L542.325 612.278L545.884 608.56L549.443 604.842L553.002 601.124L556.562 597.406L560.121 593.688L563.68 589.97L567.239 586.252L570.799 582.534L574.358 578.816L577.917 575.098L581.476 571.38L585.036 567.662L588.595 563.944L592.154 560.225L595.713 556.507L599.272 552.789L602.832 549.071L606.391 545.353L609.95 541.635L613.509 537.917L617.069 534.199L620.628 530.481L624.187 526.763L627.746 523.045L631.306 519.327L634.865 515.609L638.424 511.891L641.983 508.173L645.543 504.455L649.102 500.737L652.661 497.019L656.22 493.301L659.78 489.583L663.339 485.865L666.898 482.147L670.457 478.429L674.016 474.711L677.576 470.993L681.135 467.275L684.694 463.557L688.253 459.839L691.813 456.121L691.943 449.056L692.072 441.992L692.202 434.928L692.332 427.864L692.462 420.799L692.592 413.735L692.722 406.671L692.852 399.607L692.982 392.542L693.112 385.478L693.242 378.414L693.371 371.349L693.501 364.285L693.631 357.221L693.761 350.157L693.891 343.092L694.021 336.028L694.151 328.964L694.281 321.9L694.411 314.835L694.541 307.771L694.67 300.707L694.8 293.643L694.93 286.578L695.06 279.514L695.19 272.45L695.32 265.386L695.45 258.321L695.58 251.257L695.71 244.193L695.839 237.129L695.969 230.064L696.099 223L696.229 215.936L696.359 208.872L696.489 201.807L696.619 194.743L696.749 187.679L696.879 180.615L697.009 173.55L697.138 166.486L697.268 159.422L697.398 152.357L697.528 145.293L697.658 138.229L697.788 131.165L697.918 124.1L698.048 117.036L698.178 109.972L698.308 102.908L698.437 95.8434L698.567 88.7791L698.697 81.7149L698.827 74.6506L698.957 67.5864L699.087 60.5221L699.217 53.4578L699.347 46.3936L699.477 39.3293L699.607 32.2651L699.736 25.2008L699.866 18.1365L699.996 11.0723L699.607 2.99176Z" fill="url(#paint0_linear_2006_6381)"/>
<path d="M448.953 694.868L452.746 690.902L456.539 686.936L460.358 682.97L464.151 679.004L467.944 675.038L471.763 671.072L475.556 667.131L479.35 663.165L483.169 659.2L486.962 655.234L490.755 651.268L494.574 647.302L498.367 643.336L502.16 639.37L505.979 635.404L509.772 631.438L513.565 627.472L517.384 623.506L521.177 619.541L524.97 615.575L528.789 611.609L532.582 607.643L536.375 603.702L540.168 599.736L543.987 595.77L547.78 591.804L551.573 587.838L555.392 583.872L559.185 579.906L562.978 575.94L566.798 571.975L570.591 568.009L574.384 564.043L578.203 560.077L581.996 556.111L585.789 552.145L589.608 548.179L593.401 544.213L597.194 540.272L601.013 536.306L604.806 532.34L608.599 528.374L612.418 524.409L616.211 520.443L620.004 516.477L623.823 512.511L627.616 508.545L631.409 504.579L635.228 500.613L639.021 496.647L642.814 492.681L646.633 488.715L650.427 484.75L654.22 480.784L658.039 476.843L661.832 472.877L665.625 468.911L669.418 464.945L673.237 460.979L677.03 457.013L680.823 453.047L684.642 449.081L688.435 445.115L692.228 441.149L692.254 441.174H692.28V441.199H692.306V441.224H692.332V441.249H692.358V441.273H692.384V441.298H692.41V441.323H692.436V441.348H692.462L692.488 441.372L692.514 441.397L692.54 441.422L692.566 441.447V441.472H692.592V441.496H692.618V441.521H692.644L692.67 441.546L692.696 441.571L692.722 441.596L692.748 441.62L692.774 441.645L692.8 441.67L692.826 441.695L692.852 441.719H692.878V441.744H692.904V441.769H692.929V441.794L692.955 441.819L692.982 441.843L693.007 441.868L693.033 441.893H693.059V441.918H693.085V441.943H693.111V441.967H693.137L689.318 445.933L685.525 449.899L681.732 453.865L677.913 457.831L674.12 461.797L670.327 465.763L666.508 469.729L662.715 473.695L658.922 477.66L655.129 481.626L651.31 485.592L647.517 489.558L643.724 493.499L639.905 497.465L636.112 501.431L632.319 505.397L628.5 509.363L624.707 513.329L620.913 517.295L617.094 521.261L613.301 525.226L609.508 529.192L605.689 533.158L601.896 537.124L598.103 541.09L594.284 545.056L590.491 549.022L586.698 552.963L582.879 556.929L579.086 560.895L575.293 564.861L571.474 568.827L567.681 572.792L563.888 576.758L560.069 580.724L556.276 584.69L552.483 588.656L548.664 592.622L544.871 596.588L541.077 600.554L537.258 604.52L533.465 608.486L529.672 612.451L525.853 616.393L522.06 620.359L518.267 624.324L514.474 628.29L510.655 632.256L506.862 636.222L503.069 640.188L499.25 644.154L495.457 648.12L491.664 652.086L487.845 656.052L484.052 660.018L480.259 663.983L476.44 667.949L472.647 671.915L468.854 675.881L465.035 679.822L461.242 683.788L457.449 687.754L453.629 691.72L449.836 695.686H449.81V695.661H449.784V695.636H449.758V695.611H449.733V695.587H449.707V695.562H449.681V695.537L449.655 695.512H449.629V695.487H449.603V695.463H449.577V695.438H449.551V695.413H449.525V695.388H449.499V695.364H449.473V695.339H449.447L449.421 695.314L449.395 695.289L449.369 695.264L449.343 695.24L449.317 695.215L449.291 695.19V695.165H449.265L449.239 695.141L449.213 695.116L449.187 695.091L449.161 695.066L449.135 695.041L449.109 695.017L449.083 694.992L449.057 694.967H449.031V694.942H449.005V694.917H448.979V694.893H448.953V694.868Z" fill="url(#paint1_linear_2006_6381)"/>
<path d="M432.273 696.157L436.326 691.918L440.405 687.679L444.458 683.416L448.537 679.178L452.59 674.939L456.668 670.7L460.721 666.462L464.8 662.223L468.853 657.985L472.932 653.746L477.011 649.508L481.064 645.269L485.142 641.03L489.195 636.792L493.274 632.529L497.327 628.29L501.406 624.051L505.459 619.813L509.537 615.574L513.59 611.336L517.669 607.097L521.722 602.859L525.801 598.62L529.854 594.382L533.932 590.143L537.985 585.905L542.064 581.641L546.117 577.403L550.196 573.164L554.249 568.926L558.327 564.687L562.38 560.448L566.459 556.21L570.538 551.971L574.591 547.733L578.67 543.494L582.723 539.256L586.801 535.017L590.854 530.754L594.933 526.515L598.986 522.277L603.065 518.038L607.118 513.799L611.196 509.561L615.249 505.322L619.328 501.084L623.381 496.845L627.46 492.607L631.513 488.368L635.591 484.13L639.644 479.866L643.723 475.628L647.776 471.389L651.855 467.151L655.908 462.912L659.987 458.673L664.065 454.435L668.118 450.196L672.197 445.958L676.25 441.719L680.329 437.481L684.382 433.242L688.46 428.979L692.513 424.74L692.539 424.765L692.565 424.79L692.591 424.815L692.617 424.839V424.864H692.643L692.669 424.889L692.695 424.914L692.721 424.939L692.747 424.963L692.773 424.988L692.799 425.013L692.825 425.038H692.851V425.062H692.877V425.087H692.903V425.112H692.929V425.137H692.955V425.162H692.981V425.186L693.007 425.211L693.033 425.236H693.059V425.261H693.085V425.286H693.111V425.31H693.137V425.335H693.163V425.36H693.189V425.385H693.215L693.241 425.409L693.267 425.434L693.293 425.459L693.319 425.484L693.345 425.509L693.371 425.533V425.558H693.397V425.583L689.344 429.822L685.265 434.06L681.212 438.299L677.133 442.537L673.08 446.776L669.001 451.014L664.949 455.253L660.87 459.491L656.817 463.73L652.738 467.969L648.685 472.207L644.606 476.47L640.554 480.709L636.475 484.948L632.422 489.186L628.343 493.425L624.29 497.663L620.211 501.902L616.159 506.14L612.08 510.379L608.027 514.617L603.948 518.856L599.869 523.095L595.816 527.358L591.737 531.596L587.685 535.835L583.606 540.074L579.553 544.312L575.474 548.551L571.421 552.789L567.342 557.028L563.29 561.266L559.211 565.505L555.158 569.743L551.079 573.982L547.026 578.245L542.947 582.484L538.895 586.722L534.816 590.961L530.763 595.2L526.684 599.438L522.631 603.677L518.552 607.915L514.5 612.154L510.421 616.392L506.342 620.631L502.289 624.869L498.21 629.133L494.157 633.371L490.079 637.61L486.026 641.848L481.947 646.087L477.894 650.326L473.815 654.564L469.762 658.803L465.683 663.041L461.631 667.28L457.552 671.518L453.499 675.757L449.42 680.02L445.367 684.259L441.288 688.497L437.236 692.736L433.157 696.974V696.95H433.131V696.925H433.105L433.079 696.9L433.053 696.875L433.027 696.851L433.001 696.826L432.975 696.801L432.949 696.776L432.923 696.751H432.897V696.727L432.871 696.702L432.845 696.677L432.819 696.652L432.793 696.627L432.767 696.603L432.741 696.578H432.715V696.553H432.689V696.528H432.663V696.504H432.637V696.479H432.611V696.454H432.585V696.429H432.559V696.404H432.533L432.507 696.38V696.355H432.481V696.33H432.455V696.305H432.429V696.28H432.403V696.256H432.377V696.231H432.351L432.325 696.206L432.299 696.181L432.273 696.157Z" fill="url(#paint2_linear_2006_6381)"/>
<path d="M413.102 697.619L417.466 693.059L421.831 688.498L426.195 683.937L430.586 679.376L434.951 674.84L439.315 670.279L443.68 665.719L448.07 661.158L452.435 656.597L456.8 652.036L461.164 647.476L465.555 642.915L469.919 638.354L474.284 633.793L478.649 629.257L483.039 624.696L487.404 620.136L491.768 615.575L496.133 611.014L500.524 606.453L504.888 601.893L509.253 597.332L513.617 592.771L518.008 588.21L522.373 583.674L526.737 579.113L531.102 574.553L535.492 569.992L539.857 565.431L544.222 560.87L548.586 556.309L552.977 551.749L557.341 547.188L561.706 542.627L566.071 538.091L570.461 533.53L574.826 528.97L579.191 524.409L583.555 519.848L587.946 515.287L592.31 510.726L596.675 506.166L601.039 501.605L605.43 497.044L609.795 492.508L614.159 487.947L618.524 483.386L622.914 478.826L627.279 474.265L631.644 469.704L636.008 465.143L640.399 460.583L644.764 456.022L649.128 451.461L653.493 446.925L657.883 442.364L662.248 437.803L666.613 433.243L670.977 428.682L675.342 424.121L679.732 419.56L684.097 415L688.462 410.439L692.826 405.878L692.852 405.903L692.878 405.927L692.904 405.952L692.93 405.977L692.956 406.002L692.982 406.027L693.008 406.051L693.034 406.076H693.06V406.101H693.086V406.126H693.112V406.151H693.138V406.175H693.164V406.2H693.19V406.225H693.216V406.25H693.242L693.268 406.275V406.299H693.294V406.324H693.32V406.349H693.346V406.374H693.372V406.398H693.398V406.423H693.424L693.45 406.448L693.476 406.473L693.502 406.498L693.528 406.522L693.554 406.547L693.58 406.572L693.606 406.597H693.632V406.622L693.658 406.646L693.684 406.671L693.709 406.696L693.735 406.721L689.371 411.281L684.98 415.817L680.616 420.378L676.251 424.939L671.886 429.5L667.496 434.061L663.131 438.621L658.767 443.182L654.402 447.743L650.011 452.304L645.647 456.865L641.282 461.401L636.918 465.961L632.527 470.522L628.162 475.083L623.798 479.644L619.433 484.204L615.043 488.765L610.678 493.326L606.313 497.887L601.949 502.448L597.558 506.984L593.194 511.544L588.829 516.105L584.464 520.666L580.074 525.227L575.709 529.787L571.345 534.348L566.98 538.909L562.589 543.47L558.225 548.031L553.86 552.567L549.496 557.127L545.105 561.688L540.74 566.249L536.376 570.81L532.011 575.371L527.621 579.931L523.256 584.492L518.891 589.053L514.527 593.589L510.136 598.15L505.772 602.711L501.407 607.271L497.042 611.832L492.652 616.393L488.287 620.954L483.923 625.514L479.558 630.075L475.167 634.636L470.803 639.172L466.438 643.733L462.074 648.294L457.683 652.854L453.318 657.415L448.954 661.976L444.589 666.537L440.198 671.097L435.834 675.658L431.469 680.219L427.105 684.755L422.714 689.316L418.349 693.877L413.985 698.437H413.959V698.413H413.933V698.388H413.907V698.363H413.881V698.338H413.855V698.313L413.829 698.289L413.803 698.264H413.777V698.239H413.751V698.214H413.725V698.19H413.699V698.165H413.673V698.14H413.647V698.115H413.621V698.09H413.595L413.569 698.066L413.543 698.041L413.517 698.016L413.491 697.991L413.465 697.966V697.942H413.439V697.917H413.413L413.387 697.892L413.361 697.867L413.335 697.842L413.309 697.818L413.283 697.793L413.257 697.768L413.231 697.743L413.205 697.719H413.179V697.694H413.154V697.669H413.128V697.644H413.102V697.619Z" fill="url(#paint3_linear_2006_6381)"/>
<path d="M390.809 699.329L395.537 694.397L400.265 689.464L404.994 684.556L409.722 679.624L414.424 674.691L419.153 669.759L423.881 664.826L428.609 659.918L433.338 654.986L438.066 650.053L442.794 645.12L447.523 640.188L452.225 635.28L456.953 630.347L461.682 625.415L466.41 620.482L471.138 615.574L475.867 610.642L480.595 605.709L485.297 600.777L490.025 595.844L494.754 590.936L499.482 586.004L504.21 581.071L508.939 576.138L513.667 571.206L518.395 566.298L523.098 561.366L527.826 556.433L532.554 551.5L537.283 546.568L542.011 541.66L546.739 536.727L551.468 531.795L556.196 526.862L560.898 521.93L565.627 517.022L570.355 512.089L575.083 507.157L579.812 502.224L584.54 497.316L589.268 492.384L593.997 487.451L598.699 482.518L603.427 477.586L608.156 472.678L612.884 467.745L617.612 462.813L622.341 457.88L627.069 452.948L631.771 448.04L636.5 443.107L641.228 438.175L645.956 433.242L650.685 428.31L655.413 423.402L660.141 418.469L664.87 413.537L669.572 408.604L674.3 403.671L679.029 398.764L683.757 393.831L688.485 388.898L693.214 383.966V383.991H693.24V384.015H693.266V384.04H693.292L693.317 384.065L693.343 384.09V384.115H693.369V384.139H693.395V384.164H693.421V384.189H693.447V384.214H693.473L693.499 384.238L693.525 384.263L693.551 384.288L693.577 384.313L693.603 384.338L693.629 384.362L693.655 384.387H693.681V384.412H693.707V384.437L693.733 384.462L693.759 384.486L693.785 384.511L693.811 384.536L693.837 384.561L693.863 384.585H693.889V384.61H693.915V384.635H693.941V384.66H693.967V384.685H693.993V384.709H694.019V384.734H694.045L694.071 384.759L694.097 384.784L689.369 389.716L684.64 394.649L679.938 399.582L675.21 404.514L670.481 409.422L665.753 414.355L661.025 419.287L656.296 424.22L651.568 429.152L646.84 434.06L642.137 438.993L637.409 443.925L632.681 448.858L627.952 453.79L623.224 458.698L618.496 463.631L613.767 468.563L609.039 473.496L604.337 478.429L599.608 483.336L594.88 488.269L590.152 493.202L585.423 498.134L580.695 503.042L575.967 507.975L571.238 512.907L566.536 517.84L561.808 522.772L557.079 527.68L552.351 532.613L547.623 537.545L542.894 542.478L538.166 547.41L533.438 552.318L528.735 557.251L524.007 562.183L519.279 567.116L514.55 572.049L509.822 576.956L505.094 581.889L500.365 586.822L495.663 591.754L490.935 596.687L486.206 601.595L481.478 606.527L476.75 611.46L472.021 616.392L467.293 621.3L462.565 626.233L457.862 631.165L453.134 636.098L448.406 641.03L443.678 645.938L438.949 650.871L434.221 655.803L429.493 660.736L424.764 665.669L420.062 670.576L415.334 675.509L410.605 680.442L405.877 685.374L401.149 690.307L396.42 695.215L391.692 700.147L391.666 700.122L391.64 700.098L391.614 700.073L391.588 700.048V700.023H391.562L391.536 699.999L391.51 699.974L391.484 699.949L391.458 699.924L391.432 699.899L391.406 699.875L391.38 699.85H391.354V699.825H391.328V699.8H391.302V699.775H391.276V699.751H391.25V699.726H391.224V699.701L391.198 699.676L391.172 699.651H391.146V699.627H391.12V699.602H391.094V699.577H391.068V699.552H391.042V699.528H391.016V699.503H390.99L390.964 699.478L390.938 699.453L390.913 699.428L390.887 699.404L390.861 699.379L390.835 699.354V699.329H390.809Z" fill="url(#paint4_linear_2006_6381)"/>
<path d="M364.598 701.337L369.742 695.983L374.886 690.604L380.03 685.25L385.174 679.896L390.318 674.542L395.462 669.164L400.606 663.81L405.724 658.456L410.868 653.077L416.012 647.723L421.156 642.369L426.3 636.99L431.444 631.636L436.588 626.282L441.732 620.928L446.876 615.55L452.02 610.196L457.138 604.842L462.282 599.463L467.426 594.109L472.57 588.755L477.714 583.376L482.858 578.022L488.002 572.668L493.146 567.29L498.29 561.936L503.434 556.582L508.552 551.228L513.696 545.849L518.84 540.495L523.984 535.141L529.128 529.762L534.272 524.408L539.416 519.054L544.56 513.676L549.704 508.322L554.822 502.968L559.966 497.589L565.11 492.235L570.254 486.881L575.398 481.527L580.542 476.148L585.686 470.794L590.83 465.44L595.974 460.062L601.118 454.708L606.236 449.354L611.38 443.975L616.524 438.621L621.668 433.267L626.812 427.888L631.956 422.534L637.1 417.18L642.244 411.826L647.388 406.448L652.532 401.094L657.65 395.74L662.794 390.361L667.938 385.007L673.082 379.653L678.226 374.274L683.37 368.92L688.514 363.566L693.658 358.188V358.212H693.684V358.237L693.71 358.262L693.736 358.287L693.762 358.311H693.788V358.336H693.814V358.361H693.84V358.386H693.866V358.411H693.892V358.435H693.918V358.46H693.944V358.485H693.97L693.996 358.51L694.022 358.535L694.048 358.559L694.074 358.584V358.609H694.1V358.634H694.126V358.658H694.152L694.178 358.683L694.204 358.708L694.229 358.733L694.255 358.758L694.281 358.782L694.307 358.807L694.333 358.832L694.359 358.857H694.385V358.882H694.411V358.906H694.437V358.931L694.463 358.956L694.489 358.981L694.515 359.005L694.541 359.03L689.397 364.384L684.253 369.738L679.109 375.117L673.965 380.471L668.847 385.825L663.703 391.179L658.559 396.558L653.415 401.912L648.271 407.266L643.127 412.644L637.983 417.998L632.839 423.352L627.695 428.731L622.551 434.085L617.433 439.439L612.289 444.818L607.145 450.172L602.001 455.526L596.857 460.88L591.713 466.258L586.569 471.612L581.425 476.966L576.281 482.345L571.137 487.699L566.019 493.053L560.875 498.432L555.731 503.786L550.587 509.14L545.443 514.518L540.299 519.872L535.155 525.226L530.011 530.58L524.867 535.959L519.749 541.313L514.605 546.667L509.461 552.046L504.317 557.4L499.173 562.754L494.029 568.132L488.885 573.486L483.741 578.84L478.597 584.219L473.453 589.573L468.335 594.927L463.191 600.281L458.047 605.66L452.903 611.014L447.759 616.368L442.615 621.746L437.471 627.1L432.327 632.454L427.183 637.833L422.065 643.187L416.921 648.541L411.777 653.92L406.633 659.274L401.489 664.628L396.345 669.982L391.201 675.36L386.057 680.714L380.913 686.068L375.769 691.447L370.651 696.801L365.507 702.155H365.481V702.13H365.455L365.429 702.105L365.403 702.081L365.377 702.056L365.351 702.031L365.325 702.006L365.299 701.981V701.957H365.273V701.932H365.247L365.221 701.907L365.195 701.882L365.169 701.858L365.143 701.833L365.117 701.808L365.091 701.783L365.065 701.758H365.039V701.734H365.013V701.709H364.987V701.684H364.961V701.659H364.935V701.634H364.909V701.61L364.883 701.585L364.857 701.56H364.831V701.535H364.806V701.51H364.78V701.486H364.754V701.461H364.728V701.436H364.702V701.411H364.676L364.65 701.387L364.624 701.362L364.598 701.337Z" fill="url(#paint5_linear_2006_6381)"/>
<path d="M333.344 703.742L338.981 697.867L344.619 691.968L350.257 686.093L355.894 680.219L361.532 674.345L367.169 668.47L372.807 662.571L378.445 656.696L384.082 650.822L389.72 644.947L395.358 639.073L400.995 633.173L406.633 627.299L412.27 621.425L417.908 615.55L423.546 609.676L429.183 603.776L434.821 597.902L440.458 592.027L446.096 586.153L451.734 580.254L457.371 574.379L463.009 568.505L468.647 562.63L474.284 556.756L479.922 550.856L485.559 544.982L491.197 539.107L496.835 533.233L502.472 527.358L508.11 521.459L513.748 515.585L519.385 509.71L525.023 503.836L530.66 497.961L536.298 492.062L541.936 486.187L547.573 480.313L553.211 474.438L558.849 468.564L564.486 462.665L570.124 456.79L575.761 450.916L581.399 445.041L587.037 439.142L592.674 433.267L598.312 427.393L603.949 421.518L609.587 415.644L615.251 409.745L620.888 403.87L626.526 397.996L632.164 392.121L637.801 386.247L643.439 380.347L649.076 374.473L654.714 368.598L660.352 362.724L665.989 356.849L671.627 350.95L677.265 345.076L682.902 339.201L688.54 333.327L694.177 327.452L694.203 327.477L694.229 327.502L694.255 327.527H694.281V327.551H694.307V327.576H694.333V327.601H694.359V327.626H694.385V327.65H694.411V327.675H694.437V327.7H694.463L694.489 327.725L694.515 327.75L694.541 327.774V327.799H694.567V327.824H694.593V327.849H694.619V327.874H694.645L694.671 327.898L694.697 327.923L694.723 327.948L694.749 327.973L694.775 327.997L694.801 328.022L694.827 328.047H694.853V328.072H694.879V328.097H694.905V328.121L694.931 328.146L694.957 328.171L694.983 328.196L695.009 328.221L695.035 328.245H695.061V328.27L689.423 334.145L683.785 340.019L678.148 345.894L672.51 351.793L666.873 357.667L661.235 363.542L655.597 369.416L649.96 375.291L644.322 381.19L638.684 387.065L633.047 392.939L627.409 398.814L621.772 404.688L616.134 410.587L610.496 416.462L604.859 422.336L599.221 428.211L593.584 434.085L587.946 439.985L582.308 445.859L576.671 451.734L571.033 457.608L565.395 463.483L559.758 469.382L554.12 475.256L548.483 481.131L542.845 487.005L537.207 492.905L531.57 498.779L525.932 504.654L520.294 510.528L514.631 516.402L508.993 522.302L503.356 528.176L497.718 534.051L492.08 539.925L486.443 545.8L480.805 551.699L475.168 557.574L469.53 563.448L463.892 569.322L458.255 575.197L452.617 581.096L446.979 586.971L441.342 592.845L435.704 598.72L430.067 604.594L424.429 610.493L418.791 616.368L413.154 622.242L407.516 628.117L401.878 634.016L396.241 639.891L390.603 645.765L384.966 651.64L379.328 657.514L373.69 663.413L368.053 669.288L362.415 675.162L356.778 681.037L351.14 686.911L345.502 692.811L339.865 698.685L334.227 704.56H334.201V704.535L334.175 704.51L334.149 704.485L334.123 704.461L334.097 704.436L334.071 704.411H334.045V704.386H334.019V704.361H333.993V704.337H333.967V704.312H333.941V704.287H333.915V704.262H333.889L333.863 704.237L333.837 704.213L333.811 704.188V704.163H333.785V704.138H333.759V704.114H333.733V704.089H333.707V704.064H333.681L333.655 704.039L333.63 704.014L333.604 703.99L333.578 703.965L333.552 703.94L333.526 703.915L333.5 703.89H333.474V703.866H333.448V703.841L333.422 703.816L333.396 703.791L333.37 703.767L333.344 703.742Z" fill="url(#paint6_linear_2006_6381)"/>
<path d="M295.359 706.641L301.621 700.147L307.856 693.628L314.091 687.134L320.326 680.615L326.587 674.096L332.822 667.602L339.057 661.083L345.293 654.589L351.528 648.07L357.789 641.576L364.024 635.057L370.259 628.538L376.494 622.043L382.755 615.525L388.991 609.03L395.226 602.511L401.461 595.992L407.722 589.498L413.957 582.979L420.192 576.485L426.428 569.966L432.663 563.472L438.924 556.953L445.159 550.434L451.394 543.94L457.629 537.421L463.89 530.927L470.126 524.408L476.361 517.914L482.596 511.395L488.857 504.876L495.092 498.382L501.327 491.863L507.562 485.369L513.798 478.85L520.059 472.331L526.294 465.837L532.529 459.318L538.764 452.823L545.025 446.305L551.261 439.81L557.496 433.291L563.731 426.772L569.992 420.278L576.227 413.759L582.462 407.265L588.697 400.746L594.933 394.227L601.194 387.733L607.429 381.214L613.664 374.72L619.899 368.201L626.16 361.707L632.395 355.188L638.631 348.669L644.866 342.175L651.127 335.656L657.362 329.162L663.597 322.643L669.832 316.149L676.068 309.63L682.329 303.111L688.564 296.617L694.799 290.098L694.825 290.122L694.851 290.147L694.877 290.172L694.903 290.197L694.929 290.222H694.955V290.246H694.981V290.271H695.007V290.296H695.033V290.321L695.059 290.346L695.085 290.37L695.111 290.395H695.137V290.42H695.163V290.445H695.189V290.469H695.215V290.494H695.241V290.519H695.267V290.544H695.293V290.569H695.319L695.345 290.593L695.371 290.618L695.396 290.643L695.422 290.668V290.693H695.448V290.717H695.474V290.742H695.5L695.526 290.767L695.552 290.792L695.578 290.816L695.604 290.841L695.63 290.866L695.656 290.891L695.682 290.916H695.708L689.447 297.435L683.212 303.954L676.977 310.448L670.742 316.967L664.481 323.461L658.245 329.98L652.01 336.474L645.775 342.993L639.514 349.512L633.279 356.006L627.044 362.525L620.808 369.019L614.547 375.538L608.312 382.032L602.077 388.551L595.842 395.07L589.607 401.564L583.346 408.083L577.11 414.577L570.875 421.096L564.64 427.615L558.379 434.109L552.144 440.628L545.909 447.123L539.674 453.641L533.412 460.136L527.177 466.655L520.942 473.174L514.707 479.668L508.472 486.187L502.211 492.681L495.975 499.2L489.74 505.719L483.505 512.213L477.244 518.732L471.009 525.226L464.774 531.745L458.539 538.239L452.277 544.758L446.042 551.277L439.807 557.771L433.572 564.29L427.337 570.784L421.076 577.303L414.841 583.797L408.605 590.316L402.37 596.835L396.109 603.329L389.874 609.848L383.639 616.343L377.404 622.861L371.143 629.38L364.907 635.875L358.672 642.393L352.437 648.888L346.202 655.407L339.941 661.901L333.706 668.42L327.47 674.939L321.235 681.433L314.974 687.952L308.739 694.446L302.504 700.965L296.269 707.484L296.243 707.459V707.434H296.217V707.409H296.191L296.165 707.385L296.139 707.36L296.113 707.335L296.087 707.31L296.061 707.286L296.035 707.261L296.009 707.236H295.983V707.211H295.957V707.186H295.931V707.162H295.905V707.137H295.879V707.112L295.853 707.087L295.827 707.062L295.801 707.038H295.775V707.013H295.749V706.988H295.723V706.963H295.697V706.939H295.671V706.914H295.645V706.889H295.619L295.593 706.864L295.567 706.839L295.541 706.815L295.515 706.79L295.489 706.765L295.463 706.74V706.715H295.437V706.691H295.411L295.385 706.666L295.359 706.641Z" fill="url(#paint7_linear_2006_6381)"/>
<path d="M248.312 710.261L255.301 702.973L262.29 695.686L269.278 688.399L276.267 681.111L283.255 673.824L290.244 666.537L297.232 659.249L304.221 651.962L311.21 644.675L318.198 637.387L325.187 630.1L332.175 622.813L339.164 615.525L346.152 608.238L353.141 600.951L360.13 593.663L367.118 586.351L374.107 579.064L381.095 571.776L388.084 564.489L395.072 557.202L402.061 549.914L409.05 542.627L416.038 535.34L423.027 528.052L430.015 520.765L437.004 513.478L443.992 506.19L450.981 498.903L457.97 491.616L464.958 484.328L471.947 477.041L478.935 469.754L485.924 462.466L492.912 455.179L499.901 447.892L506.89 440.604L513.878 433.317L520.867 426.03L527.855 418.742L534.844 411.455L541.832 404.168L548.821 396.88L555.81 389.593L562.798 382.306L569.787 375.018L576.775 367.731L583.764 360.444L590.752 353.131L597.741 345.844L604.73 338.557L611.718 331.269L618.707 323.982L625.695 316.695L632.684 309.407L639.672 302.12L646.661 294.833L653.649 287.545L660.638 280.258L667.627 272.971L674.615 265.683L681.604 258.396L688.592 251.109L695.581 243.821L695.607 243.846H695.633V243.871H695.659V243.896H695.685V243.92H695.711V243.945H695.737V243.97H695.763V243.995H695.789L695.815 244.02L695.841 244.044L695.867 244.069L695.893 244.094L695.919 244.119L695.945 244.144L695.971 244.168V244.193H695.997L696.023 244.218L696.049 244.243L696.075 244.267L696.101 244.292L696.126 244.317L696.152 244.342L696.178 244.367H696.204V244.391H696.23V244.416H696.256V244.441H696.282V244.466H696.308V244.491H696.334V244.515L696.36 244.54H696.386V244.565H696.412V244.59H696.438V244.614H696.464V244.639H696.49L689.502 251.927L682.513 259.214L675.524 266.501L668.536 273.789L661.547 281.076L654.559 288.363L647.57 295.651L640.582 302.938L633.593 310.225L626.605 317.537L619.616 324.825L612.627 332.112L605.639 339.399L598.65 346.687L591.662 353.974L584.673 361.262L577.685 368.549L570.696 375.836L563.707 383.124L556.719 390.411L549.73 397.698L542.742 404.986L535.753 412.273L528.765 419.56L521.776 426.848L514.787 434.135L507.799 441.422L500.81 448.71L493.822 455.997L486.833 463.284L479.845 470.572L472.856 477.859L465.867 485.146L458.879 492.434L451.89 499.721L444.902 507.008L437.913 514.296L430.925 521.583L423.936 528.87L416.947 536.158L409.959 543.445L402.97 550.757L395.982 558.045L388.993 565.332L382.005 572.619L375.016 579.907L368.027 587.194L361.039 594.481L354.05 601.769L347.062 609.056L340.073 616.343L333.085 623.631L326.096 630.918L319.107 638.205L312.119 645.493L305.13 652.78L298.116 660.067L291.127 667.355L284.139 674.642L277.15 681.929L270.162 689.217L263.173 696.504L256.184 703.791L249.196 711.079L249.17 711.054L249.144 711.029L249.118 711.004L249.092 710.98L249.066 710.955V710.93H249.04L249.014 710.905L248.988 710.88L248.962 710.856L248.936 710.831L248.91 710.806L248.884 710.781L248.858 710.756L248.832 710.732H248.806V710.707H248.78V710.682H248.754V710.657H248.728V710.633H248.702V710.608H248.676V710.583L248.65 710.558H248.624V710.533H248.598V710.509H248.572V710.484H248.546V710.459H248.52V710.434H248.494V710.409H248.468V710.385H248.442L248.416 710.36L248.39 710.335L248.364 710.31L248.338 710.286L248.312 710.261Z" fill="url(#paint8_linear_2006_6381)"/>
<path d="M188.453 714.847L196.403 706.568L204.327 698.289L212.277 690.011L220.2 681.732L228.15 673.453L236.1 665.174L244.024 656.895L251.974 648.616L259.898 640.338L267.847 632.059L275.797 623.78L283.721 615.501L291.671 607.222L299.595 598.943L307.545 590.665L315.494 582.386L323.418 574.107L331.368 565.828L339.318 557.549L347.242 549.246L355.192 540.967L363.115 532.688L371.065 524.409L379.015 516.131L386.939 507.852L394.889 499.573L402.813 491.294L410.762 483.015L418.712 474.737L426.636 466.458L434.586 458.179L442.51 449.9L450.46 441.621L458.409 433.342L466.333 425.064L474.283 416.785L482.207 408.506L490.157 400.227L498.106 391.948L506.03 383.67L513.98 375.391L521.93 367.112L529.854 358.833L537.804 350.529L545.728 342.251L553.677 333.972L561.627 325.693L569.551 317.414L577.501 309.135L585.425 300.857L593.374 292.578L601.324 284.299L609.248 276.02L617.198 267.741L625.122 259.462L633.072 251.184L641.021 242.905L648.945 234.626L656.895 226.347L664.845 218.068L672.769 209.79L680.719 201.511L688.642 193.232L696.592 184.953L696.618 184.978H696.644V185.003H696.67V185.027H696.696V185.052H696.722V185.077H696.748V185.102H696.774V185.127H696.8L696.826 185.151L696.852 185.176V185.201H696.878V185.226H696.904V185.251H696.93V185.275H696.956V185.3H696.982V185.325H697.008L697.034 185.35L697.06 185.375L697.086 185.399L697.112 185.424L697.138 185.449L697.164 185.474L697.19 185.498H697.216V185.523L697.242 185.548L697.268 185.573L697.294 185.598L697.32 185.622L697.346 185.647L697.372 185.672H697.398V185.697H697.424V185.722H697.45V185.746H697.476V185.771L689.552 194.05L681.602 202.329L673.652 210.608L665.728 218.886L657.778 227.165L649.855 235.444L641.905 243.723L633.955 252.002L626.031 260.28L618.081 268.559L610.157 276.838L602.208 285.117L594.258 293.396L586.334 301.675L578.384 309.953L570.46 318.257L562.51 326.536L554.561 334.815L546.637 343.093L538.687 351.372L530.737 359.651L522.813 367.93L514.863 376.209L506.94 384.487L498.99 392.766L491.04 401.045L483.116 409.324L475.166 417.603L467.242 425.882L459.293 434.16L451.343 442.439L443.419 450.718L435.469 458.997L427.545 467.276L419.596 475.554L411.646 483.833L403.722 492.112L395.772 500.391L387.822 508.67L379.898 516.949L371.949 525.252L364.025 533.531L356.075 541.81L348.125 550.089L340.201 558.367L332.251 566.646L324.328 574.925L316.378 583.204L308.428 591.483L300.504 599.761L292.554 608.04L284.63 616.319L276.681 624.598L268.731 632.877L260.807 641.156L252.857 649.434L244.933 657.713L236.983 665.992L229.034 674.271L221.11 682.55L213.16 690.828L205.21 699.107L197.286 707.386L189.336 715.665L189.31 715.64L189.284 715.615L189.259 715.591L189.233 715.566H189.207V715.541H189.181V715.516H189.155V715.491H189.129V715.467H189.103V715.442H189.077V715.417H189.051L189.025 715.392L188.999 715.367L188.973 715.343V715.318H188.947V715.293H188.921V715.268H188.895V715.244H188.869L188.843 715.219L188.817 715.194L188.791 715.169L188.765 715.144L188.739 715.12L188.713 715.095L188.687 715.07L188.661 715.045H188.635V715.02H188.609V714.996L188.583 714.971L188.557 714.946L188.531 714.921L188.505 714.897L188.479 714.872H188.453V714.847Z" fill="url(#paint9_linear_2006_6381)"/>
<path d="M109.734 720.894L118.931 711.301L128.102 701.733L137.299 692.141L146.496 682.548L155.693 672.981L164.864 663.388L174.06 653.796L183.257 644.228L192.454 634.635L201.625 625.043L210.822 615.475L220.019 605.882L229.216 596.29L238.386 586.722L247.583 577.13L256.78 567.537L265.977 557.969L275.148 548.377L284.345 538.809L293.542 529.217L302.738 519.624L311.909 510.056L321.106 500.464L330.303 490.871L339.5 481.304L348.671 471.711L357.868 462.119L367.064 452.551L376.261 442.958L385.432 433.366L394.629 423.798L403.826 414.206L413.023 404.613L422.194 395.045L431.39 385.453L440.587 375.86L449.758 366.293L458.955 356.7L468.152 347.108L477.349 337.54L486.52 327.947L495.716 318.355L504.913 308.787L514.11 299.194L523.281 289.627L532.478 280.034L541.675 270.442L550.872 260.874L560.042 251.281L569.239 241.689L578.436 232.121L587.633 222.529L596.804 212.936L606.001 203.368L615.198 193.776L624.394 184.183L633.565 174.616L642.762 165.023L651.959 155.431L661.156 145.863L670.327 136.27L679.524 126.678L688.72 117.11L697.917 107.518V107.542H697.943V107.567H697.969V107.592H697.995V107.617H698.021V107.642H698.047V107.666H698.073L698.099 107.691L698.125 107.716L698.151 107.741L698.177 107.765L698.203 107.79L698.229 107.815V107.84H698.255L698.281 107.865L698.307 107.889L698.333 107.914L698.359 107.939L698.385 107.964L698.411 107.989L698.437 108.013L698.463 108.038H698.489V108.063H698.515V108.088H698.541V108.112H698.567V108.137H698.593V108.162L698.619 108.187L698.645 108.212H698.671V108.236H698.697V108.261H698.723V108.286H698.749V108.311H698.775V108.336H698.801L689.604 117.928L680.407 127.521L671.236 137.088L662.039 146.681L652.842 156.273L643.645 165.841L634.475 175.434L625.278 185.001L616.081 194.594L606.884 204.186L597.713 213.754L588.516 223.347L579.319 232.939L570.123 242.507L560.952 252.099L551.755 261.692L542.558 271.26L533.361 280.852L524.19 290.445L514.993 300.012L505.797 309.605L496.626 319.198L487.429 328.765L478.232 338.358L469.035 347.95L459.864 357.518L450.667 367.111L441.471 376.703L432.274 386.271L423.103 395.863L413.906 405.456L404.709 415.024L395.512 424.616L386.341 434.184L377.145 443.776L367.948 453.369L358.751 462.937L349.58 472.529L340.383 482.122L331.186 491.689L321.989 501.282L312.819 510.874L303.622 520.442L294.425 530.035L285.228 539.627L276.057 549.195L266.86 558.787L257.663 568.38L248.467 577.948L239.296 587.54L230.099 597.133L220.902 606.7L211.705 616.293L202.534 625.886L193.337 635.453L184.141 645.046L174.944 654.638L165.773 664.206L156.576 673.799L147.379 683.366L138.182 692.959L129.011 702.551L119.815 712.119L110.618 721.712L110.592 721.687L110.566 721.662L110.54 721.637L110.514 721.612L110.488 721.588L110.462 721.563L110.436 721.538L110.41 721.513L110.384 721.489L110.358 721.464L110.332 721.439H110.306V721.414H110.28V721.389H110.254V721.365H110.228V721.34H110.202V721.315H110.176V721.29L110.15 721.265H110.124V721.241H110.098V721.216H110.072V721.191H110.046V721.166H110.02V721.141H109.994V721.117H109.968V721.092H109.942L109.916 721.067L109.89 721.042L109.864 721.018L109.838 720.993L109.812 720.968L109.786 720.943V720.918H109.76L109.734 720.894Z" fill="url(#paint10_linear_2006_6381)"/>
<path d="M656.012 46.8652H656.038L656.064 46.89H656.09H656.116V46.9148H656.142H656.168L656.194 46.9396H656.22H656.246V46.9644H656.272H656.297L656.323 46.9892H656.349H656.375V47.014H656.401H656.427L656.453 47.0387H656.479H656.505V47.0635H656.531H656.557L656.583 47.0883H656.609H656.635V47.1131H656.661H656.687L656.713 47.1379H656.739L656.765 47.1627H656.791H656.817L656.843 47.1875H656.869L656.895 47.2122H656.921H656.947L656.973 47.237H656.999V47.2618H657.025H657.051L657.389 53.8799L657.726 60.498L658.064 67.1161L658.402 73.759L658.74 80.3771L659.077 86.9952L659.415 93.6133L659.753 100.231L660.091 106.849L660.428 113.468L660.766 120.11L661.104 126.729L661.441 133.347L661.779 139.965L662.117 146.583L662.455 153.201L662.792 159.819L663.13 166.462L663.468 173.08L663.806 179.698L664.143 186.316L664.481 192.934L664.819 199.552L665.157 206.17L665.494 212.813L665.832 219.431L666.17 226.05L666.508 232.668L666.845 239.286L667.183 245.904L667.521 252.522L667.858 259.165L668.196 265.783L668.534 272.401L668.872 279.019L669.209 285.637L669.547 292.255L669.885 298.873L670.223 305.516L670.56 312.134L670.898 318.752L671.236 325.371L671.574 331.989L671.911 338.607L672.249 345.225L672.587 351.868L672.925 358.486L673.262 365.104L673.6 371.722L673.938 378.34L674.276 384.958L674.613 391.576L674.951 398.219L675.289 404.837L675.626 411.455L675.964 418.073L676.302 424.692L676.64 431.31L676.977 437.928L677.315 444.571L677.653 451.189L677.991 457.807L678.328 464.425L678.666 471.043H678.64V471.018H678.614H678.588L678.562 470.993H678.536H678.51V470.969H678.484H678.458L678.432 470.944H678.406H678.38V470.919H678.354H678.328L678.302 470.894H678.276H678.25V470.87H678.224H678.198L678.173 470.845H678.147H678.12V470.82H678.095H678.069L678.043 470.795H678.017L677.991 470.77H677.965H677.939L677.913 470.746H677.887L677.861 470.721H677.835H677.809L677.783 470.696H677.757L677.731 470.671H677.705H677.679V470.646H677.653L677.315 464.028L676.977 457.41L676.64 450.792L676.302 444.149L675.964 437.531L675.626 430.913L675.289 424.295L674.951 417.677L674.613 411.059L674.276 404.441L673.938 397.798L673.6 391.18L673.262 384.562L672.925 377.944L672.587 371.325L672.249 364.707L671.911 358.089L671.574 351.446L671.236 344.828L670.898 338.21L670.56 331.592L670.223 324.974L669.885 318.356L669.547 311.738L669.209 305.095L668.872 298.477L668.534 291.859L668.17 285.241L667.833 278.623L667.495 272.004L667.157 265.386L666.819 258.743L666.482 252.125L666.144 245.507L665.806 238.889L665.468 232.271L665.131 225.653L664.793 219.035L664.455 212.392L664.117 205.774L663.78 199.156L663.442 192.538L663.104 185.92L662.766 179.302L662.429 172.683L662.091 166.041L661.753 159.422L661.416 152.804L661.078 146.186L660.74 139.568L660.402 132.95L660.065 126.332L659.727 119.689L659.389 113.071L659.051 106.453L658.714 99.8348L658.376 93.2167L658.038 86.5986L657.7 79.9805L657.363 73.3376L657.025 66.7195L656.687 60.1014L656.349 53.4833L656.012 46.8652Z" fill="url(#paint11_linear_2006_6381)"/>
<path d="M612.391 92.3984H612.417V92.4232H612.443H612.469H612.495L612.521 92.448H612.547H612.573L612.598 92.4728H612.624L612.65 92.4976H612.676H612.702H612.728V92.5224H612.754H612.78H612.806V92.5472H612.832H612.858H612.884V92.5719H612.91H612.936L612.962 92.5967H612.988H613.014L613.04 92.6215H613.066H613.092L613.118 92.6463H613.144H613.17L613.196 92.6711H613.222H613.248V92.6959H613.274H613.3H613.326L613.352 92.7207H613.378H613.404L614.209 98.8678L614.989 105.015L615.794 111.162L616.599 117.309L617.379 123.456L618.184 129.604L618.99 135.726L619.769 141.873L620.574 148.02L621.38 154.167L622.159 160.314L622.964 166.462L623.77 172.584L624.549 178.731L625.355 184.878L626.16 191.025L626.939 197.173L627.745 203.32L628.55 209.442L629.33 215.589L630.135 221.736L630.94 227.884L631.72 234.031L632.525 240.178L633.33 246.325L634.11 252.447L634.915 258.594L635.721 264.742L636.5 270.889L637.305 277.036L638.111 283.183L638.89 289.305L639.695 295.453L640.501 301.6L641.28 307.747L642.086 313.894L642.891 320.041L643.67 326.188L644.476 332.311L645.281 338.458L646.06 344.605L646.866 350.752L647.671 356.899L648.451 363.046L649.256 369.169L650.061 375.316L650.841 381.463L651.646 387.61L652.452 393.757L653.231 399.904L654.036 406.052L654.842 412.174L655.621 418.321L656.426 424.468L657.232 430.615L658.037 436.762L658.817 442.91L659.622 449.032L660.427 455.179L661.207 461.326L662.012 467.473L662.817 473.621L663.597 479.768L664.402 485.89H664.376H664.35H664.324V485.865H664.298H664.272H664.246V485.841H664.22H664.194H664.168V485.816H664.142H664.116L664.09 485.791H664.065H664.039L664.013 485.766H663.987H663.961L663.935 485.741H663.909H663.883L663.857 485.717H663.831H663.805L663.779 485.692H663.753H663.727L663.701 485.667H663.675H663.649L663.623 485.642H663.597H663.571L663.545 485.617H663.519H663.493V485.593H663.467H663.441H663.415V485.568H663.389L662.584 479.421L661.778 473.274L660.973 467.126L660.193 461.004L659.388 454.857L658.583 448.71L657.803 442.563L656.998 436.415L656.193 430.268L655.413 424.146L654.608 417.999L653.802 411.852L653.023 405.705L652.218 399.557L651.412 393.41L650.633 387.263L649.828 381.141L649.022 374.994L648.243 368.846L647.437 362.699L646.632 356.552L645.853 350.405L645.047 344.283L644.242 338.136L643.463 331.988L642.657 325.841L641.852 319.694L641.072 313.547L640.267 307.4L639.462 301.277L638.682 295.13L637.877 288.983L637.071 282.836L636.292 276.689L635.487 270.542L634.681 264.419L633.902 258.272L633.097 252.125L632.291 245.978L631.512 239.831L630.706 233.684L629.901 227.536L629.122 221.414L628.316 215.267L627.511 209.12L626.732 202.973L625.926 196.826L625.121 190.678L624.341 184.556L623.536 178.409L622.731 172.262L621.951 166.115L621.146 159.967L620.34 153.82L619.561 147.698L618.756 141.551L617.95 135.404L617.171 129.257L616.366 123.109L615.56 116.962L614.781 110.815L613.975 104.693L613.17 98.5456L612.391 92.3984Z" fill="url(#paint12_linear_2006_6381)"/>
<path d="M568.746 137.932L568.772 137.956H568.798H568.824H568.85H568.876V137.981H568.902H568.928H568.954L568.98 138.006H569.006H569.032H569.058L569.084 138.031H569.11H569.136H569.162L569.188 138.056H569.214H569.24H569.266V138.08H569.292H569.318H569.344L569.37 138.105H569.396H569.422H569.448H569.474V138.13H569.5H569.525H569.551L569.577 138.155H569.603H569.629H569.655L569.681 138.18H569.707H569.733H569.759L571.032 143.856L572.279 149.532L573.526 155.183L574.799 160.859L576.046 166.511L577.293 172.187L578.541 177.839L579.814 183.515L581.061 189.166L582.308 194.842L583.581 200.494L584.828 206.17L586.075 211.846L587.348 217.498L588.595 223.174L589.842 228.825L591.115 234.501L592.362 240.153L593.609 245.829L594.882 251.48L596.129 257.157L597.376 262.808L598.649 268.484L599.896 274.16L601.143 279.812L602.416 285.488L603.663 291.139L604.91 296.816L606.183 302.467L607.43 308.143L608.677 313.795L609.95 319.471L611.197 325.122L612.444 330.798L613.717 336.475L614.964 342.126L616.211 347.802L617.484 353.454L618.731 359.13L619.978 364.781L621.251 370.457L622.498 376.109L623.745 381.785L625.018 387.436L626.265 393.113L627.512 398.789L628.785 404.44L630.033 410.116L631.28 415.768L632.553 421.444L633.8 427.095L635.047 432.772L636.32 438.423L637.567 444.099L638.814 449.751L640.087 455.427L641.334 461.103L642.581 466.754L643.828 472.431L645.101 478.082L646.348 483.758L647.595 489.41L648.868 495.086L650.115 500.737H650.089H650.063H650.037L650.011 500.712H649.985H649.959H649.933V500.688H649.907H649.881H649.855H649.829V500.663H649.803H649.777H649.751L649.725 500.638H649.699H649.673H649.647L649.621 500.613H649.595H649.569H649.543L649.517 500.588H649.491H649.465H649.439L649.413 500.564H649.387H649.361H649.336V500.539H649.31H649.284H649.258H649.232V500.514H649.206H649.18H649.154L649.128 500.489H649.102L647.855 494.838L646.608 489.162L645.335 483.51L644.088 477.834L642.841 472.183L641.568 466.506L640.32 460.83L639.073 455.179L637.8 449.503L636.553 443.851L635.306 438.175L634.033 432.524L632.786 426.847L631.539 421.196L630.266 415.52L629.019 409.868L627.772 404.192L626.499 398.516L625.252 392.865L624.005 387.188L622.732 381.537L621.485 375.861L620.238 370.209L618.965 364.533L617.718 358.882L616.471 353.206L615.198 347.554L613.951 341.878L612.704 336.202L611.431 330.55L610.184 324.874L608.937 319.223L607.69 313.547L606.417 307.895L605.17 302.219L603.923 296.568L602.65 290.891L601.403 285.24L600.156 279.564L598.883 273.888L597.636 268.236L596.389 262.56L595.116 256.909L593.869 251.232L592.622 245.581L591.349 239.905L590.102 234.253L588.855 228.577L587.581 222.926L586.334 217.25L585.087 211.573L583.814 205.922L582.567 200.246L581.32 194.594L580.047 188.918L578.8 183.267L577.553 177.591L576.28 171.939L575.033 166.263L573.786 160.612L572.513 154.935L571.266 149.259L570.019 143.608L568.746 137.932Z" fill="url(#paint13_linear_2006_6381)"/>
<path d="M525.125 183.49H525.151H525.177V183.515H525.203H525.229H525.255H525.281H525.307H525.333L525.359 183.54H525.385H525.411H525.437H525.463H525.489H525.515V183.565H525.541H525.567H525.593H525.619H525.645H525.671L525.697 183.589H525.723H525.749H525.774H525.8H525.826H525.852V183.614H525.878H525.904H525.93H525.956H525.982H526.008L526.034 183.639H526.06H526.086H526.112L527.827 188.819L529.542 194.025L531.256 199.205L532.971 204.386L534.686 209.566L536.4 214.771L538.115 219.952L539.83 225.132L541.544 230.313L543.259 235.518L544.974 240.698L546.688 245.879L548.403 251.059L550.118 256.265L551.832 261.445L553.547 266.625L555.262 271.806L556.976 277.011L558.691 282.192L560.406 287.372L562.12 292.553L563.835 297.733L565.55 302.938L567.264 308.119L568.979 313.299L570.694 318.48L572.408 323.685L574.123 328.865L575.838 334.046L577.552 339.226L579.267 344.431L580.982 349.612L582.696 354.792L584.411 359.973L586.126 365.178L587.814 370.358L589.529 375.539L591.244 380.719L592.958 385.925L594.673 391.105L596.388 396.286L598.102 401.466L599.817 406.671L601.532 411.852L603.246 417.032L604.961 422.213L606.676 427.418L608.39 432.598L610.105 437.779L611.82 442.959L613.534 448.165L615.249 453.345L616.964 458.525L618.678 463.706L620.393 468.911L622.108 474.092L623.822 479.272L625.537 484.452L627.252 489.658L628.966 494.838L630.681 500.019L632.396 505.199L634.11 510.404L635.825 515.585H635.799H635.773V515.56H635.747H635.721H635.695H635.669H635.643H635.617L635.591 515.535H635.565H635.539H635.513H635.487H635.461H635.435V515.51H635.409H635.383H635.357H635.331H635.305H635.279H635.253V515.486H635.227H635.201H635.176H635.149H635.123H635.098L635.072 515.461H635.046H635.02H634.994H634.968H634.942H634.916V515.436H634.89H634.864H634.838L633.123 510.256L631.408 505.075L629.694 499.87L627.979 494.689L626.264 489.509L624.55 484.329L622.861 479.123L621.146 473.943L619.432 468.762L617.717 463.582L616.002 458.377L614.288 453.196L612.573 448.016L610.858 442.835L609.144 437.63L607.429 432.45L605.714 427.269L604 422.089L602.285 416.883L600.57 411.703L598.856 406.523L597.141 401.342L595.426 396.137L593.712 390.956L591.997 385.776L590.282 380.595L588.568 375.39L586.853 370.21L585.138 365.029L583.424 359.849L581.709 354.644L579.994 349.463L578.28 344.283L576.565 339.102L574.85 333.897L573.136 328.717L571.421 323.536L569.706 318.356L567.992 313.15L566.277 307.97L564.562 302.789L562.848 297.609L561.133 292.404L559.418 287.223L557.704 282.043L555.989 276.862L554.274 271.682L552.56 266.477L550.845 261.296L549.13 256.116L547.416 250.935L545.701 245.73L543.986 240.55L542.272 235.369L540.557 230.189L538.842 224.983L537.128 219.803L535.413 214.623L533.698 209.442L531.984 204.237L530.269 199.056L528.554 193.876L526.84 188.695L525.125 183.49Z" fill="url(#paint14_linear_2006_6381)"/>
<path d="M481.531 229.072H481.557H481.583H481.609H481.635H481.661H481.687H481.713H481.739H481.765H481.791H481.817H481.843H481.869H481.895H481.921H481.947H481.973H481.999H482.025H482.051H482.077H482.103H482.129H482.155H482.181H482.207H482.233H482.259H482.285H482.311H482.337H482.363H482.389H482.415H482.441H482.467L484.623 233.782L486.805 238.491L488.962 243.201L491.144 247.91L493.326 252.62L495.482 257.329L497.665 262.039L499.847 266.748L502.003 271.458L504.186 276.167L506.368 280.877L508.524 285.562L510.707 290.271L512.889 294.981L515.045 299.69L517.228 304.4L519.384 309.109L521.566 313.819L523.748 318.528L525.905 323.238L528.087 327.947L530.269 332.657L532.426 337.366L534.608 342.076L536.79 346.785L538.947 351.495L541.129 356.204L543.285 360.914L545.468 365.623L547.65 370.333L549.806 375.017L551.988 379.727L554.171 384.436L556.327 389.146L558.509 393.855L560.692 398.565L562.848 403.274L565.03 407.984L567.213 412.693L569.369 417.403L571.551 422.112L573.708 426.822L575.89 431.531L578.072 436.241L580.229 440.95L582.411 445.66L584.593 450.369L586.749 455.079L588.932 459.788L591.114 464.473L593.27 469.183L595.453 473.892L597.609 478.602L599.791 483.311L601.974 488.021L604.13 492.73L606.312 497.44L608.495 502.149L610.651 506.859L612.833 511.568L615.016 516.278L617.172 520.987L619.354 525.697L621.536 530.406H621.51H621.484H621.459H621.433H621.407H621.381H621.355H621.329H621.303H621.277H621.251H621.225H621.199H621.173H621.147H621.121H621.095H621.069H621.043H621.017H620.991H620.965H620.939H620.913H620.887H620.861H620.835V530.382H620.809H620.783H620.757H620.731H620.705H620.679H620.653H620.627H620.601L618.419 525.672L616.263 520.987L614.08 516.278L611.898 511.568L609.742 506.859L607.559 502.149L605.377 497.44L603.221 492.73L601.038 488.021L598.856 483.311L596.7 478.602L594.517 473.892L592.361 469.183L590.179 464.473L587.997 459.764L585.84 455.054L583.658 450.345L581.476 445.635L579.319 440.926L577.137 436.216L574.955 431.531L572.798 426.822L570.616 422.112L568.46 417.403L566.277 412.693L564.095 407.984L561.939 403.274L559.756 398.565L557.574 393.855L555.418 389.146L553.236 384.436L551.053 379.727L548.897 375.017L546.715 370.308L544.558 365.598L542.376 360.889L540.194 356.179L538.037 351.47L535.855 346.76L533.673 342.076L531.516 337.366L529.334 332.657L527.152 327.947L524.995 323.238L522.813 318.528L520.631 313.819L518.475 309.109L516.292 304.4L514.136 299.69L511.954 294.981L509.771 290.271L507.615 285.562L505.433 280.852L503.25 276.143L501.094 271.433L498.912 266.724L496.729 262.014L494.573 257.305L492.391 252.62L490.234 247.91L488.052 243.201L485.87 238.491L483.714 233.782L481.531 229.072Z" fill="url(#paint15_linear_2006_6381)"/>
<path d="M437.938 274.656H437.963H437.989V274.631H438.015H438.041H438.067H438.093H438.119V274.606H438.145H438.171H438.197H438.223H438.249L438.275 274.581H438.301H438.327H438.353H438.379L438.405 274.556H438.431H438.457H438.483H438.509L438.535 274.532H438.561H438.587H438.613H438.639L438.665 274.507H438.691H438.717H438.743H438.769L441.419 278.721L444.043 282.959L446.667 287.173L449.317 291.411L451.941 295.65L454.565 299.864L457.189 304.102L459.838 308.341L462.462 312.555L465.086 316.793L467.736 321.032L470.36 325.246L472.984 329.484L475.608 333.723L478.258 337.936L480.882 342.175L483.506 346.414L486.156 350.627L488.78 354.866L491.404 359.08L494.054 363.318L496.678 367.557L499.302 371.771L501.926 376.009L504.576 380.248L507.2 384.461L509.824 388.7L512.474 392.939L515.098 397.152L517.721 401.391L520.371 405.629L522.995 409.843L525.619 414.082L528.243 418.32L530.893 422.534L533.517 426.773L536.141 431.011L538.791 435.225L541.415 439.463L544.039 443.677L546.663 447.916L549.313 452.154L551.937 456.368L554.561 460.607L557.211 464.845L559.835 469.059L562.459 473.298L565.109 477.536L567.733 481.75L570.357 485.988L572.981 490.227L575.63 494.441L578.254 498.679L580.878 502.918L583.528 507.132L586.152 511.37L588.776 515.584L591.426 519.823L594.05 524.061L596.674 528.275L599.298 532.513L601.948 536.752L604.572 540.966L607.196 545.204H607.17H607.144V545.229H607.118H607.092H607.066H607.04H607.014L606.988 545.254H606.962H606.936H606.91H606.884L606.858 545.279H606.832H606.806H606.78H606.754L606.728 545.303H606.702H606.676H606.65H606.624L606.598 545.328H606.572H606.546H606.52H606.494L606.469 545.353H606.443H606.417H606.391H606.365L603.741 541.139L601.117 536.901L598.467 532.662L595.843 528.448L593.219 524.21L590.569 519.971L587.945 515.757L585.321 511.519L582.671 507.305L580.047 503.067L577.423 498.828L574.799 494.614L572.149 490.376L569.525 486.137L566.901 481.923L564.251 477.685L561.627 473.446L559.003 469.233L556.379 464.994L553.73 460.755L551.106 456.542L548.482 452.303L545.832 448.065L543.208 443.851L540.584 439.612L537.934 435.398L535.31 431.16L532.686 426.921L530.062 422.708L527.412 418.469L524.788 414.23L522.164 410.017L519.514 405.778L516.89 401.54L514.266 397.326L511.616 393.087L508.992 388.849L506.368 384.635L503.744 380.396L501.094 376.158L498.47 371.944L495.847 367.705L493.197 363.467L490.573 359.253L487.949 355.015L485.325 350.801L482.675 346.562L480.051 342.324L477.427 338.11L474.777 333.871L472.153 329.633L469.529 325.419L466.879 321.181L464.255 316.942L461.631 312.728L459.007 308.49L456.357 304.251L453.733 300.037L451.109 295.799L448.459 291.56L445.835 287.346L443.211 283.108L440.561 278.894L437.938 274.656Z" fill="url(#paint16_linear_2006_6381)"/>
<path d="M394.371 320.239H394.397H394.423V320.214H394.449H394.475L394.501 320.189H394.527V320.164H394.553H394.579V320.139H394.605H394.631V320.115H394.657H394.683V320.09H394.709L394.735 320.065H394.761L394.787 320.04H394.813L394.839 320.016H394.865L394.891 319.991H394.917L394.943 319.966H394.969V319.941H394.995H395.021L395.047 319.916H395.073V319.892L398.164 323.659L401.256 327.402L404.347 331.145L407.439 334.912L410.531 338.655L413.622 342.423L416.714 346.166L419.805 349.909L422.897 353.676L425.989 357.419L429.08 361.162L432.172 364.929L435.263 368.672L438.355 372.415L441.421 376.183L444.512 379.925L447.604 383.668L450.695 387.436L453.787 391.179L456.879 394.921L459.97 398.689L463.062 402.432L466.153 406.175L469.245 409.942L472.337 413.685L475.428 417.453L478.52 421.196L481.611 424.938L484.703 428.706L487.795 432.449L490.886 436.192L493.978 439.959L497.069 443.702L500.161 447.445L503.253 451.212L506.318 454.955L509.41 458.698L512.501 462.466L515.593 466.209L518.684 469.951L521.776 473.719L524.868 477.462L527.959 481.205L531.051 484.972L534.142 488.715L537.234 492.458L540.326 496.225L543.417 499.968L546.509 503.736L549.6 507.479L552.692 511.222L555.784 514.989L558.875 518.732L561.967 522.475L565.058 526.242L568.15 529.985L571.216 533.728L574.307 537.496L577.399 541.238L580.49 544.981L583.582 548.749L586.674 552.492L589.765 556.234L592.857 560.002H592.831L592.805 560.027H592.779V560.052H592.753H592.727V560.076H592.701H592.675V560.101H592.649H592.623V560.126H592.597H592.571V560.151H592.545L592.519 560.176H592.493H592.467V560.2H592.441L592.415 560.225H592.389L592.363 560.25H592.337V560.275H592.311H592.285L592.259 560.3H592.233V560.324H592.207H592.181V560.349H592.155L589.064 556.581L585.972 552.839L582.881 549.096L579.789 545.328L576.723 541.585L573.632 537.843L570.54 534.075L567.449 530.332L564.357 526.589L561.265 522.822L558.174 519.079L555.082 515.336L551.991 511.568L548.899 507.826L545.807 504.083L542.716 500.315L539.624 496.572L536.533 492.83L533.441 489.062L530.349 485.319L527.258 481.552L524.166 477.809L521.075 474.066L517.983 470.298L514.891 466.556L511.826 462.813L508.734 459.045L505.643 455.302L502.551 451.56L499.459 447.792L496.368 444.049L493.276 440.306L490.185 436.539L487.093 432.796L484.001 429.053L480.91 425.285L477.818 421.543L474.727 417.8L471.635 414.032L468.543 410.289L465.452 406.547L462.36 402.779L459.269 399.036L456.177 395.268L453.085 391.526L449.994 387.783L446.928 384.015L443.837 380.272L440.745 376.53L437.653 372.762L434.562 369.019L431.47 365.276L428.379 361.509L425.287 357.766L422.195 354.023L419.104 350.256L416.012 346.513L412.921 342.77L409.829 339.002L406.738 335.259L403.646 331.517L400.554 327.749L397.463 324.006L394.371 320.239Z" fill="url(#paint17_linear_2006_6381)"/>
<path d="M350.828 365.847H350.854V365.822H350.88V365.797L350.906 365.773L350.932 365.748L350.958 365.723L350.984 365.698L351.01 365.674V365.649H351.036V365.624H351.062V365.599H351.088V365.574H351.114V365.55H351.14V365.525H351.166V365.5L351.192 365.475L351.218 365.45L351.244 365.426V365.401H351.27V365.376H351.296V365.351H351.322V365.327H351.348V365.302L354.907 368.574L358.44 371.845L361.999 375.117L365.559 378.414L369.092 381.686L372.651 384.958L376.184 388.23L379.744 391.501L383.303 394.773L386.836 398.045L390.395 401.317L393.955 404.589L397.488 407.861L401.047 411.133L404.58 414.405L408.14 417.676L411.699 420.948L415.232 424.22L418.791 427.492L422.325 430.764L425.884 434.036L429.443 437.308L432.976 440.579L436.536 443.876L440.069 447.148L443.628 450.42L447.187 453.692L450.72 456.964L454.28 460.235L457.813 463.507L461.372 466.779L464.931 470.051L468.465 473.323L472.024 476.595L475.583 479.867L479.116 483.139L482.676 486.41L486.209 489.682L489.768 492.954L493.327 496.226L496.861 499.498L500.42 502.77L503.953 506.042L507.512 509.338L511.072 512.61L514.605 515.882L518.164 519.154L521.697 522.426L525.257 525.698L528.816 528.97L532.349 532.241L535.908 535.513L539.442 538.785L543.001 542.057L546.56 545.329L550.093 548.601L553.653 551.873L557.212 555.144L560.745 558.416L564.304 561.688L567.837 564.96L571.397 568.232L574.956 571.504L578.489 574.8L578.463 574.825L578.437 574.85L578.411 574.875L578.385 574.9L578.359 574.924V574.949H578.333V574.974H578.307V574.999H578.281V575.023H578.255V575.048H578.229V575.073H578.203V575.098H578.177V575.123H578.152V575.147L578.125 575.172V575.197H578.099V575.222H578.074V575.247H578.048V575.271H578.022V575.296H577.996V575.321H577.97L574.436 572.049L570.877 568.777L567.318 565.505L563.785 562.233L560.225 558.962L556.692 555.69L553.133 552.418L549.574 549.146L546.04 545.874L542.481 542.602L538.948 539.33L535.389 536.059L531.829 532.787L528.296 529.515L524.737 526.243L521.204 522.971L517.644 519.674L514.085 516.403L510.552 513.131L506.993 509.859L503.434 506.587L499.9 503.315L496.341 500.043L492.808 496.771L489.249 493.499L485.689 490.228L482.156 486.956L478.597 483.684L475.064 480.412L471.504 477.14L467.945 473.868L464.412 470.596L460.853 467.325L457.319 464.053L453.76 460.781L450.201 457.509L446.668 454.212L443.108 450.94L439.575 447.669L436.016 444.397L432.457 441.125L428.923 437.853L425.364 434.581L421.805 431.309L418.272 428.037L414.712 424.765L411.179 421.494L407.62 418.222L404.061 414.95L400.528 411.678L396.968 408.406L393.435 405.134L389.876 401.862L386.317 398.591L382.783 395.319L379.224 392.047L375.691 388.75L372.132 385.478L368.572 382.206L365.039 378.935L361.48 375.663L357.947 372.391L354.387 369.119L350.828 365.847Z" fill="url(#paint18_linear_2006_6381)"/>
<path d="M307.624 410.736L311.625 413.537L315.626 416.313L319.653 419.114L323.654 421.915L327.655 424.716L331.656 427.492L335.682 430.293L339.683 433.094L343.684 435.895L347.685 438.671L351.712 441.472L355.713 444.273L359.714 447.074L363.715 449.85L367.742 452.651L371.742 455.452L375.743 458.253L379.77 461.029L383.771 463.83L387.772 466.631L391.773 469.432L395.8 472.208L399.801 475.009L403.802 477.81L407.802 480.611L411.829 483.387L415.83 486.188L419.831 488.989L423.832 491.789L427.859 494.566L431.86 497.366L435.861 500.167L439.862 502.968L443.888 505.744L447.889 508.545L451.89 511.346L455.917 514.147L459.918 516.923L463.919 519.724L467.92 522.525L471.947 525.326L475.947 528.102L479.948 530.903L483.949 533.704L487.976 536.505L491.977 539.281L495.978 542.082L499.979 544.883L504.006 547.684L508.007 550.46L512.007 553.261L516.034 556.062L520.035 558.863L524.036 561.639L528.037 564.44L532.064 567.241L536.065 570.042L540.066 572.818L544.066 575.619L548.093 578.42L552.094 581.22L556.095 583.997L560.096 586.797L564.123 589.598L564.097 589.623V589.648L564.071 589.673V589.698V589.722H564.045V589.747V589.772L564.019 589.797V589.822V589.846H563.993V589.871V589.896H563.967V589.921V589.945L563.941 589.97V589.995V590.02H563.915V590.045V590.069H563.889V590.094V590.119V590.144H563.863V590.169V590.193H563.837V590.218V590.243H563.811V590.268V590.292L559.784 587.516L555.783 584.715L551.783 581.914L547.782 579.114L543.755 576.313L539.754 573.537L535.753 570.736L531.752 567.935L527.725 565.134L523.724 562.358L519.723 559.557L515.723 556.756L511.696 553.955L507.695 551.179L503.694 548.378L499.667 545.577L495.666 542.776L491.665 540L487.664 537.199L483.637 534.398L479.637 531.597L475.636 528.821L471.635 526.02L467.608 523.219L463.607 520.418L459.606 517.642L455.605 514.841L451.578 512.04L447.578 509.239L443.577 506.463L439.576 503.662L435.549 500.861L431.548 498.06L427.547 495.284L423.52 492.483L419.519 489.683L415.518 486.882L411.518 484.105L407.491 481.305L403.49 478.504L399.489 475.703L395.488 472.927L391.461 470.126L387.46 467.325L383.459 464.524L379.458 461.748L375.432 458.947L371.431 456.146L367.43 453.345L363.403 450.569L359.402 447.768L355.401 444.967L351.4 442.166L347.373 439.39L343.372 436.589L339.372 433.788L335.371 430.987L331.344 428.211L327.343 425.41L323.342 422.609L319.341 419.808L315.314 417.032L311.313 414.231L307.312 411.43V411.406V411.381H307.338V411.356V411.331H307.364V411.306V411.282H307.39V411.257V411.232V411.207H307.416V411.183V411.158H307.442V411.133V411.108L307.468 411.083V411.059V411.034H307.494V411.009V410.984H307.52V410.959V410.935L307.546 410.91V410.885V410.86H307.572V410.835V410.811L307.598 410.786V410.761L307.624 410.736Z" fill="url(#paint19_linear_2006_6381)"/>
<path d="M263.873 456.17L268.342 458.5L272.811 460.805L277.279 463.11L281.748 465.44L286.216 467.745L290.685 470.075L295.153 472.381L299.622 474.71L304.09 477.016L308.559 479.346L313.001 481.651L317.47 483.956L321.938 486.286L326.407 488.591L330.875 490.921L335.344 493.226L339.812 495.556L344.281 497.861L348.749 500.191L353.218 502.497L357.687 504.827L362.155 507.132L366.624 509.437L371.066 511.767L375.535 514.072L380.003 516.402L384.472 518.707L388.94 521.037L393.409 523.342L397.877 525.672L402.346 527.978L406.814 530.307L411.283 532.613L415.751 534.918L420.22 537.248L424.688 539.553L429.131 541.883L433.6 544.188L438.068 546.518L442.537 548.823L447.005 551.153L451.474 553.458L455.942 555.764L460.411 558.094L464.879 560.399L469.348 562.729L473.816 565.034L478.285 567.364L482.727 569.669L487.196 571.999L491.664 574.304L496.133 576.634L500.601 578.939L505.07 581.244L509.539 583.574L514.007 585.88L518.476 588.21L522.944 590.515L527.413 592.845L531.881 595.15L536.35 597.48L540.792 599.785L545.261 602.115L549.729 604.42V604.445V604.47V604.495V604.519V604.544V604.569L549.703 604.594V604.619V604.643V604.668V604.693V604.718V604.742V604.767L549.677 604.792V604.817V604.842V604.866V604.891V604.916V604.941V604.966L549.651 604.99V605.015V605.04V605.065V605.089V605.114V605.139V605.164L549.625 605.189V605.213V605.238L545.157 602.933L540.688 600.603L536.22 598.298L531.751 595.993L527.309 593.663L522.84 591.358L518.372 589.028L513.903 586.722L509.435 584.392L504.966 582.087L500.498 579.757L496.029 577.452L491.561 575.122L487.092 572.817L482.623 570.512L478.155 568.182L473.686 565.877L469.244 563.547L464.775 561.241L460.307 558.911L455.838 556.606L451.37 554.276L446.901 551.971L442.433 549.641L437.964 547.336L433.496 545.031L429.027 542.701L424.559 540.396L420.09 538.066L415.622 535.761L411.179 533.431L406.71 531.125L402.242 528.795L397.773 526.49L393.305 524.185L388.836 521.855L384.368 519.55L379.899 517.22L375.431 514.915L370.962 512.585L366.494 510.28L362.025 507.95L357.557 505.645L353.114 503.315L348.646 501.009L344.177 498.704L339.709 496.374L335.24 494.069L330.771 491.739L326.303 489.434L321.834 487.104L317.366 484.799L312.897 482.469L308.429 480.164L303.96 477.834L299.518 475.528L295.049 473.223L290.581 470.893L286.112 468.588L281.644 466.258L277.175 463.953L272.707 461.623L268.238 459.318L263.77 456.988V456.963V456.938L263.796 456.914V456.889V456.864V456.839V456.814V456.79V456.765V456.74L263.821 456.715V456.69V456.666V456.641V456.616V456.591V456.567V456.542L263.847 456.517V456.492V456.467V456.443V456.418V456.393V456.368V456.343L263.873 456.319V456.294V456.269V456.244V456.219V456.195V456.17Z" fill="url(#paint20_linear_2006_6381)"/>
<path d="M220.176 501.629L225.086 503.463L230.022 505.322L234.932 507.156L239.868 508.991L244.779 510.825L249.715 512.659L254.651 514.493L259.561 516.328L264.497 518.187L269.408 520.021L274.344 521.855L279.254 523.689L284.19 525.523L289.126 527.358L294.036 529.217L298.973 531.051L303.883 532.885L308.819 534.719L313.729 536.554L318.665 538.388L323.601 540.222L328.512 542.081L333.448 543.915L338.358 545.75L343.294 547.584L348.23 549.418L353.14 551.252L358.077 553.111L362.987 554.945L367.923 556.78L372.833 558.614L377.769 560.448L382.705 562.282L387.616 564.117L392.552 565.976L397.462 567.81L402.398 569.644L407.308 571.478L412.245 573.313L417.181 575.147L422.091 577.006L427.027 578.84L431.937 580.674L436.873 582.508L441.784 584.343L446.72 586.177L451.656 588.011L456.566 589.87L461.502 591.704L466.412 593.539L471.349 595.373L476.285 597.207L481.195 599.041L486.131 600.876L491.041 602.735L495.977 604.569L500.888 606.403L505.824 608.237L510.76 610.071L515.67 611.906L520.606 613.765L525.517 615.599L530.453 617.433L535.363 619.267L535.389 619.292V619.317V619.342V619.367V619.391V619.416V619.441V619.466V619.491V619.515V619.54V619.565V619.59V619.614V619.639H535.415V619.664V619.689V619.714V619.738V619.763V619.788V619.813V619.837V619.862V619.887V619.912V619.937V619.961V619.986L535.441 620.011V620.036V620.061V620.085V620.11V620.135V620.16V620.185L530.505 618.326L525.594 616.491L520.658 614.657L515.748 612.823L510.812 610.989L505.902 609.154L500.966 607.295L496.029 605.461L491.119 603.627L486.183 601.793L481.273 599.958L476.337 598.124L471.401 596.29L466.49 594.431L461.554 592.597L456.644 590.762L451.708 588.928L446.798 587.094L441.862 585.26L436.925 583.401L432.015 581.567L427.079 579.732L422.169 577.898L417.233 576.064L412.322 574.23L407.386 572.395L402.45 570.536L397.54 568.702L392.604 566.868L387.694 565.034L382.757 563.199L377.821 561.365L372.911 559.506L367.975 557.672L363.065 555.838L358.129 554.004L353.218 552.169L348.282 550.335L343.346 548.501L338.436 546.642L333.5 544.808L328.59 542.973L323.653 541.139L318.743 539.305L313.807 537.471L308.871 535.612L303.961 533.777L299.024 531.943L294.114 530.109L289.178 528.275L284.242 526.441L279.332 524.606L274.396 522.747L269.485 520.913L264.549 519.079L259.639 517.245L254.703 515.41L249.767 513.576L244.857 511.742L239.92 509.883L235.01 508.049L230.074 506.214L225.164 504.38L220.228 502.546V502.521V502.496V502.472V502.447V502.422V502.397V502.373H220.202V502.348V502.323V502.298V502.273V502.249V502.224V502.199V502.174V502.149V502.125V502.1V502.075V502.05V502.025L220.176 502.001V501.976V501.951V501.926V501.902V501.877V501.852V501.827V501.802V501.778V501.753V501.728V501.703V501.678V501.654V501.629Z" fill="url(#paint21_linear_2006_6381)"/>
<path d="M176.453 547.113L181.857 548.477L187.235 549.84L192.613 551.203L197.99 552.566L203.368 553.905L208.772 555.268L214.15 556.631L219.528 557.995L224.905 559.358L230.309 560.721L235.687 562.06L241.065 563.423L246.443 564.786L251.847 566.15L257.224 567.513L262.602 568.876L267.98 570.239L273.384 571.578L278.762 572.941L284.139 574.304L289.517 575.668L294.895 577.031L300.299 578.394L305.677 579.758L311.055 581.096L316.432 582.459L321.836 583.823L327.214 585.186L332.592 586.549L337.97 587.912L343.373 589.276L348.751 590.614L354.129 591.978L359.507 593.341L364.885 594.704L370.288 596.067L375.666 597.431L381.044 598.794L386.422 600.132L391.826 601.496L397.204 602.859L402.581 604.222L407.959 605.585L413.363 606.949L418.741 608.312L424.119 609.651L429.496 611.014L434.9 612.377L440.278 613.74L445.656 615.104L451.034 616.467L456.412 617.83L461.815 619.169L467.193 620.532L472.571 621.895L477.949 623.259L483.353 624.622L488.73 625.985L494.108 627.324L499.486 628.687L504.89 630.05L510.268 631.413L515.646 632.777L521.023 634.14L521.049 634.165V634.19V634.214V634.239V634.264L521.075 634.289V634.314V634.338V634.363V634.388L521.101 634.413V634.437V634.462V634.487V634.512H521.127V634.537V634.561V634.586V634.611V634.636L521.153 634.661V634.685V634.71V634.735V634.76H521.179V634.784V634.809V634.834V634.859V634.884H521.205V634.908V634.933V634.958V634.983L521.231 635.008V635.032V635.057V635.082L515.853 633.719L510.476 632.355L505.072 630.992L499.694 629.654L494.316 628.29L488.938 626.927L483.56 625.564L478.157 624.2L472.779 622.837L467.401 621.474L462.023 620.135L456.619 618.772L451.242 617.409L445.864 616.046L440.486 614.682L435.082 613.319L429.704 611.956L424.326 610.617L418.949 609.254L413.571 607.891L408.167 606.527L402.789 605.164L397.411 603.801L392.034 602.462L386.63 601.099L381.252 599.736L375.874 598.373L370.496 597.009L365.093 595.646L359.715 594.283L354.337 592.944L348.959 591.581L343.555 590.218L338.177 588.854L332.8 587.491L327.422 586.128L322.044 584.765L316.64 583.426L311.262 582.063L305.885 580.699L300.507 579.336L295.103 577.973L289.725 576.61L284.347 575.246L278.969 573.908L273.566 572.545L268.188 571.181L262.81 569.818L257.432 568.455L252.028 567.091L246.651 565.728L241.273 564.39L235.895 563.026L230.517 561.663L225.113 560.3L219.735 558.937L214.358 557.573L208.98 556.21L203.576 554.872L198.198 553.508L192.82 552.145L187.443 550.782L182.039 549.418L176.661 548.055V548.03V548.006V547.981H176.635V547.956V547.931V547.906V547.882L176.609 547.857V547.832V547.807V547.783V547.758L176.583 547.733V547.708V547.683V547.659V547.634L176.557 547.609V547.584V547.559V547.535V547.51H176.531V547.485V547.46V547.436V547.411V547.386L176.505 547.361V547.336V547.312V547.287V547.262L176.479 547.237V547.212V547.188V547.163V547.138H176.453V547.113Z" fill="url(#paint22_linear_2006_6381)"/>
<path d="M132.777 592.598L138.623 593.49L144.442 594.357L150.288 595.25L156.133 596.142L161.979 597.01L167.824 597.902L173.67 598.77L179.515 599.662L185.36 600.529L191.206 601.422L197.025 602.289L202.871 603.182L208.716 604.074L214.562 604.942L220.407 605.834L226.253 606.701L232.098 607.594L237.944 608.461L243.789 609.354L249.609 610.221L255.454 611.113L261.299 612.006L267.145 612.873L272.99 613.766L278.836 614.633L284.681 615.526L290.527 616.393L296.372 617.285L302.192 618.153L308.037 619.045L313.883 619.938L319.728 620.805L325.574 621.697L331.419 622.565L337.264 623.457L343.11 624.325L348.955 625.217L354.775 626.085L360.62 626.977L366.466 627.869L372.311 628.737L378.157 629.629L384.002 630.497L389.848 631.389L395.693 632.257L401.538 633.149L407.358 634.016L413.203 634.909L419.049 635.801L424.894 636.669L430.74 637.561L436.585 638.429L442.431 639.321L448.276 640.188L454.122 641.081L459.967 641.948L465.787 642.841L471.632 643.733L477.477 644.601L483.323 645.493L489.168 646.36L495.014 647.253L500.859 648.12L506.705 649.013V649.037V649.062L506.731 649.087V649.112V649.136L506.757 649.161V649.186V649.211V649.236L506.783 649.26V649.285V649.31L506.809 649.335V649.36V649.384L506.835 649.409V649.434V649.459L506.861 649.484V649.508V649.533L506.887 649.558V649.583V649.607V649.632L506.913 649.657V649.682V649.707L506.939 649.731V649.756V649.781L506.965 649.806V649.831V649.855L506.991 649.88V649.905V649.93V649.954L507.017 649.979L501.171 649.112L495.326 648.219L489.48 647.327L483.635 646.46L477.789 645.567L471.944 644.7L466.124 643.807L460.279 642.94L454.433 642.047L448.588 641.18L442.742 640.288L436.897 639.395L431.052 638.528L425.206 637.635L419.361 636.768L413.541 635.876L407.696 635.008L401.85 634.116L396.005 633.248L390.159 632.356L384.314 631.463L378.468 630.596L372.623 629.704L366.778 628.836L360.958 627.944L355.113 627.076L349.267 626.184L343.422 625.316L337.576 624.424L331.731 623.532L325.885 622.664L320.04 621.772L314.194 620.904L308.375 620.012L302.529 619.144L296.684 618.252L290.839 617.385L284.993 616.492L279.148 615.6L273.302 614.732L267.457 613.84L261.611 612.972L255.792 612.08L249.946 611.213L244.101 610.32L238.255 609.453L232.41 608.56L226.564 607.668L220.719 606.801L214.874 605.908L209.028 605.041L203.209 604.148L197.363 603.281L191.518 602.388L185.672 601.521L179.827 600.629L173.981 599.736L168.136 598.869L162.29 597.976L156.445 597.109L150.625 596.217L144.78 595.349L138.935 594.457L133.089 593.589V593.564L133.063 593.54V593.515V593.49L133.037 593.465V593.44V593.416V593.391H133.011V593.366V593.341V593.316H132.985V593.292V593.267V593.242L132.959 593.217V593.193V593.168L132.933 593.143V593.118V593.093V593.069H132.907V593.044V593.019V592.994H132.881V592.969V592.945V592.92H132.855V592.895V592.87V592.846H132.829V592.821V592.796V592.771V592.746H132.803V592.722V592.697V592.672H132.777V592.647V592.622V592.598Z" fill="url(#paint23_linear_2006_6381)"/>
<path d="M89.082 638.105L95.3951 638.502L101.708 638.899L107.995 639.32L114.308 639.717L120.596 640.113L126.909 640.535L133.196 640.931L139.509 641.328L145.796 641.724L152.109 642.146L158.396 642.542L164.709 642.939L171.022 643.336L177.309 643.757L183.623 644.154L189.91 644.55L196.223 644.947L202.51 645.368L208.823 645.765L215.11 646.161L221.423 646.558L227.71 646.979L234.023 647.376L240.336 647.772L246.624 648.169L252.937 648.59L259.224 648.987L265.537 649.383L271.824 649.78L278.137 650.201L284.424 650.598L290.737 650.995L297.05 651.391L303.338 651.813L309.651 652.209L315.938 652.606L322.251 653.002L328.538 653.424L334.851 653.82L341.138 654.217L347.451 654.614L353.738 655.035L360.051 655.432L366.365 655.828L372.652 656.225L378.965 656.646L385.252 657.043L391.565 657.439L397.852 657.861L404.165 658.257L410.452 658.654L416.765 659.05L423.053 659.472L429.366 659.868L435.679 660.265L441.966 660.662L448.279 661.083L454.566 661.48L460.879 661.876L467.166 662.273L473.479 662.694L479.766 663.091L486.08 663.487L492.367 663.884L492.393 663.909V663.933V663.958H492.419V663.983V664.008L492.445 664.033V664.057V664.082H492.471V664.107V664.132L492.497 664.156V664.181V664.206H492.523V664.231V664.256L492.548 664.28V664.305V664.33H492.574V664.355V664.38V664.404H492.6V664.429V664.454L492.626 664.479V664.503V664.528H492.652V664.553V664.578L492.678 664.603V664.627V664.652H492.704V664.677V664.702L492.73 664.727V664.751V664.776H492.756V664.801V664.826L492.782 664.851V664.875L486.469 664.479L480.182 664.057L473.869 663.661L467.582 663.264L461.269 662.868L454.982 662.446L448.669 662.05L442.381 661.653L436.068 661.256L429.781 660.835L423.468 660.438L417.155 660.042L410.868 659.645L404.555 659.224L398.268 658.827L391.955 658.431L385.668 658.034L379.354 657.613L373.067 657.216L366.754 656.82L360.467 656.423L354.154 656.002L347.841 655.605L341.554 655.208L335.241 654.812L328.954 654.39L322.641 653.994L316.353 653.597L310.04 653.176L303.753 652.779L297.44 652.383L291.127 651.986L284.84 651.565L278.527 651.168L272.24 650.772L265.927 650.375L259.639 649.954L253.326 649.557L247.039 649.16L240.726 648.764L234.439 648.342L228.126 647.946L221.813 647.549L215.526 647.153L209.213 646.731L202.926 646.335L196.612 645.938L190.325 645.542L184.012 645.12L177.725 644.724L171.412 644.327L165.125 643.93L158.812 643.509L152.499 643.112L146.212 642.716L139.899 642.319L133.611 641.898L127.298 641.501L121.011 641.105L114.698 640.708L108.411 640.287L102.098 639.89L95.8108 639.494L89.4977 639.097V639.072V639.047H89.4717V639.023V638.998L89.4457 638.973V638.948V638.923H89.4198V638.899V638.874L89.3938 638.849V638.824V638.8H89.3678V638.775V638.75L89.3418 638.725V638.7V638.676H89.3158V638.651V638.626L89.2899 638.601V638.576L89.2639 638.552V638.527V638.502V638.477H89.2379V638.453V638.428L89.2119 638.403V638.378V638.353H89.1859V638.329V638.304L89.16 638.279V638.254L89.134 638.229V638.205V638.18L89.108 638.155V638.13L89.082 638.105Z" fill="url(#paint24_linear_2006_6381)"/>
<path d="M45.4336 683.615L52.1883 683.541L58.9431 683.466L65.6978 683.392L72.4526 683.318L79.2333 683.219L85.9881 683.144L92.7428 683.07L99.4976 682.996L106.252 682.921L113.033 682.847L119.788 682.772L126.543 682.698L133.297 682.624L140.052 682.549L146.833 682.475L153.588 682.401L160.342 682.326L167.097 682.252L173.878 682.177L180.633 682.103L187.387 682.029L194.142 681.954L200.897 681.88L207.678 681.806L214.432 681.731L221.187 681.657L227.942 681.583L234.697 681.483L241.477 681.409L248.232 681.335L254.987 681.26L261.741 681.186L268.496 681.111L275.277 681.037L282.032 680.963L288.787 680.888L295.541 680.814L302.296 680.74L309.077 680.665L315.831 680.591L322.586 680.517L329.341 680.442L336.096 680.368L342.876 680.293L349.631 680.219L356.386 680.145L363.141 680.07L369.895 679.996L376.676 679.922L383.431 679.847L390.186 679.748L396.94 679.674L403.695 679.599L410.476 679.525L417.231 679.451L423.985 679.376L430.74 679.302L437.495 679.227L444.276 679.153L451.03 679.079L457.785 679.004L464.54 678.93L471.295 678.856L478.075 678.781V678.806L478.101 678.831V678.856V678.88H478.127V678.905L478.153 678.93V678.955V678.98L478.179 679.004V679.029H478.205V679.054V679.079L478.231 679.104V679.128V679.153H478.257V679.178V679.203H478.283V679.227V679.252L478.309 679.277V679.302L478.335 679.327V679.351L478.361 679.376V679.401L478.387 679.426V679.451V679.475H478.413V679.5V679.525H478.439V679.55V679.575L478.465 679.599V679.624L478.491 679.649V679.674L478.517 679.698V679.723L478.543 679.748V679.773L471.788 679.847L465.008 679.922L458.253 679.996L451.498 680.07L444.743 680.145L437.989 680.219L431.208 680.293L424.453 680.368L417.698 680.442L410.944 680.517L404.189 680.591L397.408 680.665L390.653 680.74L383.899 680.814L377.144 680.888L370.389 680.963L363.608 681.037L356.854 681.111L350.099 681.186L343.344 681.26L336.589 681.335L329.809 681.434L323.054 681.508L316.299 681.583L309.544 681.657L302.79 681.731L296.009 681.806L289.254 681.88L282.499 681.954L275.745 682.029L268.99 682.103L262.209 682.177L255.454 682.252L248.7 682.326L241.945 682.401L235.164 682.475L228.409 682.549L221.655 682.624L214.9 682.698L208.145 682.772L201.364 682.847L194.61 682.921L187.855 682.996L181.1 683.07L174.345 683.144L167.565 683.243L160.81 683.318L154.055 683.392L147.3 683.466L140.546 683.541L133.765 683.615L127.01 683.69L120.255 683.764L113.501 683.838L106.746 683.913L99.9652 683.987L93.2105 684.061L86.4557 684.136L79.701 684.21L72.9462 684.285L66.1655 684.359L59.4107 684.433L52.656 684.508L45.9012 684.582H45.8752V684.557V684.532L45.8493 684.508V684.483V684.458H45.8233V684.433L45.7973 684.409V684.384V684.359L45.7713 684.334V684.309H45.7454V684.285V684.26L45.7194 684.235V684.21L45.6934 684.185V684.161V684.136H45.6674V684.111V684.086H45.6414V684.061V684.037L45.6155 684.012V683.987H45.5895V683.962V683.938L45.5635 683.913V683.888L45.5375 683.863V683.838V683.814H45.5115V683.789V683.764H45.4856V683.739V683.714L45.4596 683.69V683.665H45.4336V683.64V683.615Z" fill="url(#paint25_linear_2006_6381)"/>
</g>
<defs>
<linearGradient id="paint0_linear_2006_6381" x1="354.289" y1="368.455" x2="716.836" y2="728.099" gradientUnits="userSpaceOnUse">
<stop offset="0.1449" stop-color="#CCCCCC"/>
<stop offset="0.1781" stop-color="#B3B3B3"/>
<stop offset="0.2402" stop-color="#898989"/>
<stop offset="0.3077" stop-color="#646464"/>
<stop offset="0.3801" stop-color="#454545"/>
<stop offset="0.4586" stop-color="#2C2C2C"/>
<stop offset="0.5457" stop-color="#181818"/>
<stop offset="0.6459" stop-color="#0A0A0A"/>
<stop offset="0.7713" stop-color="#020202"/>
<stop offset="1"/>
</linearGradient>
<linearGradient id="paint1_linear_2006_6381" x1="-688.805" y1="-569.194" x2="1380.14" y2="1483.18" gradientUnits="userSpaceOnUse">
<stop offset="0.1449" stop-color="#CCCCCC"/>
<stop offset="0.1781" stop-color="#B3B3B3"/>
<stop offset="0.2402" stop-color="#898989"/>
<stop offset="0.3077" stop-color="#646464"/>
<stop offset="0.3801" stop-color="#454545"/>
<stop offset="0.4586" stop-color="#2C2C2C"/>
<stop offset="0.5457" stop-color="#181818"/>
<stop offset="0.6459" stop-color="#0A0A0A"/>
<stop offset="0.7713" stop-color="#020202"/>
<stop offset="1"/>
</linearGradient>
<linearGradient id="paint2_linear_2006_6381" x1="-718.155" y1="-595.854" x2="1470.64" y2="1575.41" gradientUnits="userSpaceOnUse">
<stop offset="0.1449" stop-color="#CCCCCC"/>
<stop offset="0.1781" stop-color="#B3B3B3"/>
<stop offset="0.2402" stop-color="#898989"/>
<stop offset="0.3077" stop-color="#646464"/>
<stop offset="0.3801" stop-color="#454545"/>
<stop offset="0.4586" stop-color="#2C2C2C"/>
<stop offset="0.5457" stop-color="#181818"/>
<stop offset="0.6459" stop-color="#0A0A0A"/>
<stop offset="0.7713" stop-color="#020202"/>
<stop offset="1"/>
</linearGradient>
<linearGradient id="paint3_linear_2006_6381" x1="-744.852" y1="-620.144" x2="1581.7" y2="1687.77" gradientUnits="userSpaceOnUse">
<stop offset="0.1449" stop-color="#CCCCCC"/>
<stop offset="0.1781" stop-color="#B3B3B3"/>
<stop offset="0.2402" stop-color="#898989"/>
<stop offset="0.3077" stop-color="#646464"/>
<stop offset="0.3801" stop-color="#454545"/>
<stop offset="0.4586" stop-color="#2C2C2C"/>
<stop offset="0.5457" stop-color="#181818"/>
<stop offset="0.6459" stop-color="#0A0A0A"/>
<stop offset="0.7713" stop-color="#020202"/>
<stop offset="1"/>
</linearGradient>
<linearGradient id="paint4_linear_2006_6381" x1="-766.479" y1="-639.882" x2="1720.18" y2="1826.87" gradientUnits="userSpaceOnUse">
<stop offset="0.1449" stop-color="#CCCCCC"/>
<stop offset="0.1781" stop-color="#B3B3B3"/>
<stop offset="0.2402" stop-color="#898989"/>
<stop offset="0.3077" stop-color="#646464"/>
<stop offset="0.3801" stop-color="#454545"/>
<stop offset="0.4586" stop-color="#2C2C2C"/>
<stop offset="0.5457" stop-color="#181818"/>
<stop offset="0.6459" stop-color="#0A0A0A"/>
<stop offset="0.7713" stop-color="#020202"/>
<stop offset="1"/>
</linearGradient>
<linearGradient id="paint5_linear_2006_6381" x1="-778.936" y1="-651.381" x2="1896.03" y2="2002.16" gradientUnits="userSpaceOnUse">
<stop offset="0.1449" stop-color="#CCCCCC"/>
<stop offset="0.1781" stop-color="#B3B3B3"/>
<stop offset="0.2402" stop-color="#898989"/>
<stop offset="0.3077" stop-color="#646464"/>
<stop offset="0.3801" stop-color="#454545"/>
<stop offset="0.4586" stop-color="#2C2C2C"/>
<stop offset="0.5457" stop-color="#181818"/>
<stop offset="0.6459" stop-color="#0A0A0A"/>
<stop offset="0.7713" stop-color="#020202"/>
<stop offset="1"/>
</linearGradient>
<linearGradient id="paint6_linear_2006_6381" x1="-775.459" y1="-648.537" x2="2124.2" y2="2227.9" gradientUnits="userSpaceOnUse">
<stop offset="0.1449" stop-color="#CCCCCC"/>
<stop offset="0.1781" stop-color="#B3B3B3"/>
<stop offset="0.2402" stop-color="#898989"/>
<stop offset="0.3077" stop-color="#646464"/>
<stop offset="0.3801" stop-color="#454545"/>
<stop offset="0.4586" stop-color="#2C2C2C"/>
<stop offset="0.5457" stop-color="#181818"/>
<stop offset="0.6459" stop-color="#0A0A0A"/>
<stop offset="0.7713" stop-color="#020202"/>
<stop offset="1"/>
</linearGradient>
<linearGradient id="paint7_linear_2006_6381" x1="-744.398" y1="-620.848" x2="2427.95" y2="2526.1" gradientUnits="userSpaceOnUse">
<stop offset="0.1449" stop-color="#CCCCCC"/>
<stop offset="0.1781" stop-color="#B3B3B3"/>
<stop offset="0.2402" stop-color="#898989"/>
<stop offset="0.3077" stop-color="#646464"/>
<stop offset="0.3801" stop-color="#454545"/>
<stop offset="0.4586" stop-color="#2C2C2C"/>
<stop offset="0.5457" stop-color="#181818"/>
<stop offset="0.6459" stop-color="#0A0A0A"/>
<stop offset="0.7713" stop-color="#020202"/>
<stop offset="1"/>
</linearGradient>
<linearGradient id="paint8_linear_2006_6381" x1="-665.113" y1="-549.702" x2="2845.32" y2="2932.61" gradientUnits="userSpaceOnUse">
<stop offset="0.1449" stop-color="#CCCCCC"/>
<stop offset="0.1781" stop-color="#B3B3B3"/>
<stop offset="0.2402" stop-color="#898989"/>
<stop offset="0.3077" stop-color="#646464"/>
<stop offset="0.3801" stop-color="#454545"/>
<stop offset="0.4586" stop-color="#2C2C2C"/>
<stop offset="0.5457" stop-color="#181818"/>
<stop offset="0.6459" stop-color="#0A0A0A"/>
<stop offset="0.7713" stop-color="#020202"/>
<stop offset="1"/>
</linearGradient>
<linearGradient id="paint9_linear_2006_6381" x1="-498.959" y1="-400.232" x2="3441.6" y2="3508.77" gradientUnits="userSpaceOnUse">
<stop offset="0.1449" stop-color="#CCCCCC"/>
<stop offset="0.1781" stop-color="#B3B3B3"/>
<stop offset="0.2402" stop-color="#898989"/>
<stop offset="0.3077" stop-color="#646464"/>
<stop offset="0.3801" stop-color="#454545"/>
<stop offset="0.4586" stop-color="#2C2C2C"/>
<stop offset="0.5457" stop-color="#181818"/>
<stop offset="0.6459" stop-color="#0A0A0A"/>
<stop offset="0.7713" stop-color="#020202"/>
<stop offset="1"/>
</linearGradient>
<linearGradient id="paint10_linear_2006_6381" x1="-169.153" y1="-103.17" x2="4336.98" y2="4366.87" gradientUnits="userSpaceOnUse">
<stop offset="0.1449" stop-color="#CCCCCC"/>
<stop offset="0.1781" stop-color="#B3B3B3"/>
<stop offset="0.2402" stop-color="#898989"/>
<stop offset="0.3077" stop-color="#646464"/>
<stop offset="0.3801" stop-color="#454545"/>
<stop offset="0.4586" stop-color="#2C2C2C"/>
<stop offset="0.5457" stop-color="#181818"/>
<stop offset="0.6459" stop-color="#0A0A0A"/>
<stop offset="0.7713" stop-color="#020202"/>
<stop offset="1"/>
</linearGradient>
<linearGradient id="paint11_linear_2006_6381" x1="560.124" y1="162.135" x2="915.518" y2="514.683" gradientUnits="userSpaceOnUse">
<stop offset="0.1449" stop-color="#CCCCCC"/>
<stop offset="0.1781" stop-color="#B3B3B3"/>
<stop offset="0.2402" stop-color="#898989"/>
<stop offset="0.3077" stop-color="#646464"/>
<stop offset="0.3801" stop-color="#454545"/>
<stop offset="0.4586" stop-color="#2C2C2C"/>
<stop offset="0.5457" stop-color="#181818"/>
<stop offset="0.6459" stop-color="#0A0A0A"/>
<stop offset="0.7713" stop-color="#020202"/>
<stop offset="1"/>
</linearGradient>
<linearGradient id="paint12_linear_2006_6381" x1="531.413" y1="192.551" x2="885.996" y2="544.295" gradientUnits="userSpaceOnUse">
<stop offset="0.1449" stop-color="#CCCCCC"/>
<stop offset="0.1781" stop-color="#B3B3B3"/>
<stop offset="0.2402" stop-color="#898989"/>
<stop offset="0.3077" stop-color="#646464"/>
<stop offset="0.3801" stop-color="#454545"/>
<stop offset="0.4586" stop-color="#2C2C2C"/>
<stop offset="0.5457" stop-color="#181818"/>
<stop offset="0.6459" stop-color="#0A0A0A"/>
<stop offset="0.7713" stop-color="#020202"/>
<stop offset="1"/>
</linearGradient>
<linearGradient id="paint13_linear_2006_6381" x1="502.705" y1="222.967" x2="856.477" y2="573.905" gradientUnits="userSpaceOnUse">
<stop offset="0.1449" stop-color="#CCCCCC"/>
<stop offset="0.1781" stop-color="#B3B3B3"/>
<stop offset="0.2402" stop-color="#898989"/>
<stop offset="0.3077" stop-color="#646464"/>
<stop offset="0.3801" stop-color="#454545"/>
<stop offset="0.4586" stop-color="#2C2C2C"/>
<stop offset="0.5457" stop-color="#181818"/>
<stop offset="0.6459" stop-color="#0A0A0A"/>
<stop offset="0.7713" stop-color="#020202"/>
<stop offset="1"/>
</linearGradient>
<linearGradient id="paint14_linear_2006_6381" x1="473.994" y1="253.384" x2="826.954" y2="603.516" gradientUnits="userSpaceOnUse">
<stop offset="0.1449" stop-color="#CCCCCC"/>
<stop offset="0.1781" stop-color="#B3B3B3"/>
<stop offset="0.2402" stop-color="#898989"/>
<stop offset="0.3077" stop-color="#646464"/>
<stop offset="0.3801" stop-color="#454545"/>
<stop offset="0.4586" stop-color="#2C2C2C"/>
<stop offset="0.5457" stop-color="#181818"/>
<stop offset="0.6459" stop-color="#0A0A0A"/>
<stop offset="0.7713" stop-color="#020202"/>
<stop offset="1"/>
</linearGradient>
<linearGradient id="paint15_linear_2006_6381" x1="445.285" y1="283.799" x2="797.431" y2="633.124" gradientUnits="userSpaceOnUse">
<stop offset="0.1449" stop-color="#CCCCCC"/>
<stop offset="0.1781" stop-color="#B3B3B3"/>
<stop offset="0.2402" stop-color="#898989"/>
<stop offset="0.3077" stop-color="#646464"/>
<stop offset="0.3801" stop-color="#454545"/>
<stop offset="0.4586" stop-color="#2C2C2C"/>
<stop offset="0.5457" stop-color="#181818"/>
<stop offset="0.6459" stop-color="#0A0A0A"/>
<stop offset="0.7713" stop-color="#020202"/>
<stop offset="1"/>
</linearGradient>
<linearGradient id="paint16_linear_2006_6381" x1="416.577" y1="314.215" x2="767.909" y2="662.735" gradientUnits="userSpaceOnUse">
<stop offset="0.1449" stop-color="#CCCCCC"/>
<stop offset="0.1781" stop-color="#B3B3B3"/>
<stop offset="0.2402" stop-color="#898989"/>
<stop offset="0.3077" stop-color="#646464"/>
<stop offset="0.3801" stop-color="#454545"/>
<stop offset="0.4586" stop-color="#2C2C2C"/>
<stop offset="0.5457" stop-color="#181818"/>
<stop offset="0.6459" stop-color="#0A0A0A"/>
<stop offset="0.7713" stop-color="#020202"/>
<stop offset="1"/>
</linearGradient>
<linearGradient id="paint17_linear_2006_6381" x1="387.869" y1="344.632" x2="738.389" y2="692.345" gradientUnits="userSpaceOnUse">
<stop offset="0.1449" stop-color="#CCCCCC"/>
<stop offset="0.1781" stop-color="#B3B3B3"/>
<stop offset="0.2402" stop-color="#898989"/>
<stop offset="0.3077" stop-color="#646464"/>
<stop offset="0.3801" stop-color="#454545"/>
<stop offset="0.4586" stop-color="#2C2C2C"/>
<stop offset="0.5457" stop-color="#181818"/>
<stop offset="0.6459" stop-color="#0A0A0A"/>
<stop offset="0.7713" stop-color="#020202"/>
<stop offset="1"/>
</linearGradient>
<linearGradient id="paint18_linear_2006_6381" x1="359.15" y1="375.042" x2="708.886" y2="721.976" gradientUnits="userSpaceOnUse">
<stop offset="0.1449" stop-color="#CCCCCC"/>
<stop offset="0.1781" stop-color="#B3B3B3"/>
<stop offset="0.2402" stop-color="#898989"/>
<stop offset="0.3077" stop-color="#646464"/>
<stop offset="0.3801" stop-color="#454545"/>
<stop offset="0.4586" stop-color="#2C2C2C"/>
<stop offset="0.5457" stop-color="#181818"/>
<stop offset="0.6459" stop-color="#0A0A0A"/>
<stop offset="0.7713" stop-color="#020202"/>
<stop offset="1"/>
</linearGradient>
<linearGradient id="paint19_linear_2006_6381" x1="330.442" y1="405.459" x2="679.363" y2="751.585" gradientUnits="userSpaceOnUse">
<stop offset="0.1449" stop-color="#CCCCCC"/>
<stop offset="0.1781" stop-color="#B3B3B3"/>
<stop offset="0.2402" stop-color="#898989"/>
<stop offset="0.3077" stop-color="#646464"/>
<stop offset="0.3801" stop-color="#454545"/>
<stop offset="0.4586" stop-color="#2C2C2C"/>
<stop offset="0.5457" stop-color="#181818"/>
<stop offset="0.6459" stop-color="#0A0A0A"/>
<stop offset="0.7713" stop-color="#020202"/>
<stop offset="1"/>
</linearGradient>
<linearGradient id="paint20_linear_2006_6381" x1="301.732" y1="435.875" x2="649.84" y2="781.194" gradientUnits="userSpaceOnUse">
<stop offset="0.1449" stop-color="#CCCCCC"/>
<stop offset="0.1781" stop-color="#B3B3B3"/>
<stop offset="0.2402" stop-color="#898989"/>
<stop offset="0.3077" stop-color="#646464"/>
<stop offset="0.3801" stop-color="#454545"/>
<stop offset="0.4586" stop-color="#2C2C2C"/>
<stop offset="0.5457" stop-color="#181818"/>
<stop offset="0.6459" stop-color="#0A0A0A"/>
<stop offset="0.7713" stop-color="#020202"/>
<stop offset="1"/>
</linearGradient>
<linearGradient id="paint21_linear_2006_6381" x1="273.023" y1="466.291" x2="620.318" y2="810.805" gradientUnits="userSpaceOnUse">
<stop offset="0.1449" stop-color="#CCCCCC"/>
<stop offset="0.1781" stop-color="#B3B3B3"/>
<stop offset="0.2402" stop-color="#898989"/>
<stop offset="0.3077" stop-color="#646464"/>
<stop offset="0.3801" stop-color="#454545"/>
<stop offset="0.4586" stop-color="#2C2C2C"/>
<stop offset="0.5457" stop-color="#181818"/>
<stop offset="0.6459" stop-color="#0A0A0A"/>
<stop offset="0.7713" stop-color="#020202"/>
<stop offset="1"/>
</linearGradient>
<linearGradient id="paint22_linear_2006_6381" x1="244.315" y1="496.707" x2="590.799" y2="840.416" gradientUnits="userSpaceOnUse">
<stop offset="0.1449" stop-color="#CCCCCC"/>
<stop offset="0.1781" stop-color="#B3B3B3"/>
<stop offset="0.2402" stop-color="#898989"/>
<stop offset="0.3077" stop-color="#646464"/>
<stop offset="0.3801" stop-color="#454545"/>
<stop offset="0.4586" stop-color="#2C2C2C"/>
<stop offset="0.5457" stop-color="#181818"/>
<stop offset="0.6459" stop-color="#0A0A0A"/>
<stop offset="0.7713" stop-color="#020202"/>
<stop offset="1"/>
</linearGradient>
<linearGradient id="paint23_linear_2006_6381" x1="215.601" y1="527.124" x2="561.274" y2="870.028" gradientUnits="userSpaceOnUse">
<stop offset="0.1449" stop-color="#CCCCCC"/>
<stop offset="0.1781" stop-color="#B3B3B3"/>
<stop offset="0.2402" stop-color="#898989"/>
<stop offset="0.3077" stop-color="#646464"/>
<stop offset="0.3801" stop-color="#454545"/>
<stop offset="0.4586" stop-color="#2C2C2C"/>
<stop offset="0.5457" stop-color="#181818"/>
<stop offset="0.6459" stop-color="#0A0A0A"/>
<stop offset="0.7713" stop-color="#020202"/>
<stop offset="1"/>
</linearGradient>
<linearGradient id="paint24_linear_2006_6381" x1="186.895" y1="557.539" x2="531.755" y2="899.638" gradientUnits="userSpaceOnUse">
<stop offset="0.1449" stop-color="#CCCCCC"/>
<stop offset="0.1781" stop-color="#B3B3B3"/>
<stop offset="0.2402" stop-color="#898989"/>
<stop offset="0.3077" stop-color="#646464"/>
<stop offset="0.3801" stop-color="#454545"/>
<stop offset="0.4586" stop-color="#2C2C2C"/>
<stop offset="0.5457" stop-color="#181818"/>
<stop offset="0.6459" stop-color="#0A0A0A"/>
<stop offset="0.7713" stop-color="#020202"/>
<stop offset="1"/>
</linearGradient>
<linearGradient id="paint25_linear_2006_6381" x1="158.183" y1="587.946" x2="502.269" y2="929.238" gradientUnits="userSpaceOnUse">
<stop offset="0.1449" stop-color="#CCCCCC"/>
<stop offset="0.1781" stop-color="#B3B3B3"/>
<stop offset="0.2402" stop-color="#898989"/>
<stop offset="0.3077" stop-color="#646464"/>
<stop offset="0.3801" stop-color="#454545"/>
<stop offset="0.4586" stop-color="#2C2C2C"/>
<stop offset="0.5457" stop-color="#181818"/>
<stop offset="0.6459" stop-color="#0A0A0A"/>
<stop offset="0.7713" stop-color="#020202"/>
<stop offset="1"/>
</linearGradient>
</defs>
</svg>
