<?xml version="1.0" encoding="utf-8"?>
<svg version="1.1" id="Layer_1" xmlns="http://www.w3.org/2000/svg" xmlns:xlink="http://www.w3.org/1999/xlink" x="0px" y="0px" viewBox="0 0 122.88 101.91" style="enable-background:new 0 0 122.88 101.91;" xml:space="preserve">
  <style type="text/css">.st0{fill-rule:evenodd;clip-rule:evenodd;fill:#dc2a76;}</style>
  <g>
    <path class="st0" d="M3.34,0h116.2c1.84,0,3.34,1.5,3.34,3.34v76.98c0,1.84-1.5,3.34-3.34,3.34H3.34C1.5,83.66,0,82.16,0,80.32 V3.34C0,1.5,1.5,0,3.34,0L3.34,0L3.34,0z M91.58,27.97L102.08,28c-0.01,2.8-1.14,5.48-3.13,7.45c-0.47,0.46-0.99,0.88-1.54,1.25 L91.58,27.97L91.58,27.97L91.58,27.97z M31.13,19.72h3.2c0.17,0,0.31,0.14,0.31,0.31v11.4c0,0.17-0.14,0.31-0.31,0.31h-3.2 c-0.17,0-0.31-0.14-0.31-0.31v-11.4C30.82,19.86,30.96,19.72,31.13,19.72L31.13,19.72z M16.65,15.87h3.2 c0.17,0,0.31,0.14,0.31,0.31v15.26c0,0.17-0.14,0.31-0.31,0.31h-3.2c-0.17,0-0.31-0.14-0.31-0.31V16.18 C16.34,16.01,16.48,15.87,16.65,15.87L16.65,15.87z M23.89,13.7h3.2c0.17,0,0.31,0.14,0.31,0.31v17.43c0,0.17-0.14,0.31-0.31,0.31 h-3.2c-0.17,0-0.31-0.14-0.31-0.31V14.01C23.58,13.84,23.72,13.7,23.89,13.7L23.89,13.7z M16.84,61.37c-0.7,0-1.26-0.57-1.26-1.28 c0-0.7,0.57-1.28,1.26-1.28h89.41c0.7,0,1.26,0.57,1.26,1.28c0,0.7-0.57,1.28-1.26,1.28H16.84L16.84,61.37z M16.63,52.07 c-0.7,0-1.26-0.57-1.26-1.28c0-0.7,0.57-1.28,1.26-1.28h35.85c0.7,0,1.26,0.57,1.26,1.28c0,0.7-0.57,1.28-1.26,1.28H16.63 L16.63,52.07z M57.4,52.07c-0.7,0-1.26-0.57-1.26-1.28c0-0.7,0.57-1.28,1.26-1.28h48.85c0.7,0,1.26,0.57,1.26,1.28 c0,0.7-0.57,1.28-1.26,1.28H57.4L57.4,52.07z M16.63,43.76c-0.7,0-1.26-0.57-1.26-1.28c0-0.7,0.57-1.28,1.26-1.28h54.16 c0.7,0,1.26,0.57,1.26,1.28c0,0.7-0.57,1.28-1.26,1.28H16.63L16.63,43.76z M90.5,25.88l-0.56-11.23c-0.01-0.22,0.16-0.41,0.38-0.42 c0.06,0,0.14-0.01,0.23-0.01c0.07,0,0.15,0,0.23,0c3.08-0.03,5.92,1.13,8.03,3.08c2.12,1.95,3.51,4.67,3.73,7.75 c0.02,0.22-0.15,0.41-0.37,0.43l-11.23,0.8c-0.22,0.02-0.41-0.15-0.43-0.37C90.5,25.9,90.5,25.89,90.5,25.88L90.5,25.88L90.5,25.88 z M90.76,15.02l0.52,10.43l10.42-0.74c-0.29-2.7-1.56-5.09-3.44-6.81c-1.97-1.81-4.61-2.9-7.48-2.87L90.76,15.02L90.76,15.02 L90.76,15.02z M89.24,27.48l5.63,9.75c-1.71,0.99-3.65,1.51-5.63,1.51c-6.22,0-11.26-5.04-11.26-11.26c0-5.59,4.1-10.33,9.63-11.14 L89.24,27.48L89.24,27.48z M46.29,88.27h30.3c0.08,5.24,2.24,9.94,8.09,13.63H38.2C42.88,98.51,46.31,94.39,46.29,88.27 L46.29,88.27L46.29,88.27z M61.44,72.41c2.37,0,4.29,1.92,4.29,4.29c0,2.37-1.92,4.29-4.29,4.29c-2.37,0-4.29-1.92-4.29-4.29 C57.15,74.33,59.07,72.41,61.44,72.41L61.44,72.41z M10.05,6.29h102.79c1.63,0,2.95,1.33,2.95,2.95v57.52 c0,1.62-1.33,2.95-2.95,2.95H10.05c-1.62,0-2.95-1.33-2.95-2.95V9.24C7.09,7.62,8.42,6.29,10.05,6.29L10.05,6.29L10.05,6.29z"/>
  </g>
</svg>
